<svg width="486" height="841" viewBox="0 0 486 841" fill="none" xmlns="http://www.w3.org/2000/svg">
<path d="M201.106 388.786C192.878 389.847 202.487 422.526 215.118 420.444C227.749 418.362 221.363 393.951 221.363 393.951C221.363 393.951 209.713 387.678 201.106 388.786Z" fill="#421922"/>
<path d="M177.816 422.681C179.796 420.395 188.101 415.916 188.101 415.916C195.27 413.527 199.224 412.17 202.242 409.122C205.267 406.104 216.853 406.56 216.853 406.56C216.853 406.56 215.163 395.921 207.661 388.398C207.661 388.398 201.88 390.093 200.083 389.444C196.496 388.178 193.944 382.878 186.927 381.917C179.885 380.961 171.55 376.321 171.55 376.321C171.55 376.321 168.26 378.425 170.811 381.096C173.393 383.787 179.064 384.935 179.835 386.478C179.993 386.792 180.12 387.112 180.192 387.437C180.192 387.437 180.197 387.464 180.232 387.516C180.567 388.727 180.467 390.028 179.833 390.899C179.813 390.959 179.768 391.049 179.693 391.116C176.912 394.269 167.721 396.183 163.56 396.645C157.771 397.279 149.84 398.597 151.67 401.927C153.502 405.255 156.271 401.598 169.356 402.559L169.703 403.854C170.644 403.977 162.357 407.584 154.339 409.279C148.822 410.462 151.386 413.829 153.253 414.381C155.122 414.963 160.497 412.961 164.501 412.157C167.137 411.595 169.878 410.994 171.508 410.627L172.571 412.047C163.672 418.929 159.404 417.589 159.658 420.854C159.91 424.094 167.906 421.813 170.769 419.656C172.01 418.727 174.713 417.626 177.379 416.67C171.603 423.26 168.083 423.103 168.854 425.654C169.666 428.285 175.839 424.97 177.816 422.681Z" fill="#F57559"/>
<path d="M189.553 396.048C183.989 394.857 180.624 388.327 180.232 387.516C180.567 388.727 180.467 390.027 179.833 390.898C183.782 397.209 189.553 396.048 189.553 396.048Z" fill="#EF5640"/>
<path d="M296.643 227.912C277.394 253.015 260.754 366.28 260.754 366.28C260.754 366.28 254.102 365.13 254.476 369.059C254.851 372.988 201.106 388.787 201.106 388.787C201.106 388.787 221.111 398.524 215.118 420.444C215.118 420.444 277.544 410.734 295.36 402.828C313.173 394.925 317.285 275.267 317.285 275.267L296.643 227.912Z" fill="#6C2230"/>
<path d="M277.087 836.337C277.087 839.053 277.367 840.965 277.367 840.965H355.882C355.882 839.414 355.854 837.862 355.772 836.337C354.883 815.799 348.398 797.979 348.398 797.979L328.777 789.554C327.087 799.671 322.734 806.126 317.275 810.341C315.834 811.477 314.337 812.42 312.786 813.224C312.065 813.61 311.343 813.97 310.597 814.305C308.96 815.051 307.27 815.663 305.58 816.162C298.65 818.266 291.638 818.71 286.733 819.459C278.363 820.763 277.087 830.433 277.087 836.337Z" fill="#152328"/>
<path d="M277.087 836.337C277.087 839.053 277.367 840.965 277.367 840.965H355.882C355.882 839.414 355.854 837.862 355.772 836.337H277.087Z" fill="#131A1B"/>
<path d="M401.476 836.337C401.668 838.998 402.362 840.965 402.362 840.965H454.659C455.326 839.442 455.797 837.916 456.129 836.337C461.284 811.312 419.035 780.685 419.035 780.685L415.498 795.403C415.498 795.403 416.773 818.96 407.435 823.865C401.836 826.803 401.114 832.345 401.476 836.337Z" fill="#152328"/>
<path d="M456.129 836.337H401.476C401.668 838.998 402.362 840.965 402.362 840.965H454.659C455.325 839.442 455.797 837.916 456.129 836.337Z" fill="#131A1B"/>
<path d="M428.865 431.805C428.865 481.556 444.851 661.049 446.566 673.85C449.856 698.383 456.129 819.936 456.129 819.936C456.129 819.936 429.025 798.027 413.67 814.305L412.023 774.624L363.895 497.584L359.279 496.808C359.279 496.808 355.992 810.605 355.882 823.471L309.781 810.341L316.074 792.103L313.423 737.103C313.423 737.103 298.598 466.543 295.332 436.743L428.865 431.805Z" fill="#3F5461"/>
<path d="M431.002 444.234C431.002 444.234 418.293 455.232 356.184 454.044C308.223 453.125 295.517 441.5 295.517 441.5L296.643 227.913C296.643 227.913 317.804 217.296 346.191 210.067C354.599 207.927 364.277 209.702 374.292 210.172C381.708 210.514 388.748 211.717 395.295 213.537C421.002 220.713 439.017 237.573 441.753 250.803C445.188 267.401 431.002 444.234 431.002 444.234Z" fill="#D2DADC"/>
<path d="M395.295 213.537C395.295 213.537 379.541 233.258 375.81 272.574C372.075 311.89 385.552 469.155 385.552 469.155H438.126C438.126 469.155 436.778 411.593 438.126 378.905C439.474 346.214 440.171 233.545 440.171 233.545C440.171 233.545 411.651 216.283 395.295 213.537Z" fill="#872B39"/>
<path d="M340.253 209.772C340.253 209.772 321.691 230.194 316.928 283.524C312.165 336.852 314.037 466.034 314.037 466.034C314.037 466.034 298.256 462.289 290.857 457.921C290.857 457.921 278.001 296.208 296.643 227.913C296.643 227.913 320.912 214.37 340.253 209.772Z" fill="#872B39"/>
<path d="M375.809 200.416C375.809 200.416 403.485 207.326 414.304 233.085L390.173 240.978L402.237 254.683C402.237 254.683 381.758 300.953 375.979 325.664C375.979 325.664 367.851 256.43 386.918 213.537C386.918 213.537 355.557 208.2 343.832 215.576C332.107 222.95 314.683 326.68 314.683 326.68L304.052 257.009L322.357 238.672L308.213 233.544C308.213 233.544 330.24 201.068 375.809 200.416Z" fill="#6C2230"/>
<path d="M347.425 193.265L355.58 225.409C355.58 225.409 364.816 229.76 384.397 216.58C384.397 216.58 374.002 192.124 383.206 174.737C383.206 174.737 380.877 174.875 377.195 175.314C377.195 175.314 373.496 194.43 347.425 193.265Z" fill="#EF5640"/>
<path d="M384.397 158.129C384.779 196.17 348.198 201.644 338.723 187.593C335.685 183.092 332.859 174.882 331.159 165.923C330.764 163.891 330.435 161.834 330.173 159.765C328.408 145.736 329.781 131.532 337.617 127.775C364.881 114.68 384.015 120.091 384.397 158.129Z" fill="#F57559"/>
<path d="M357.864 151.799C358.061 153.906 357.272 155.701 356.101 155.811C354.931 155.92 353.825 154.3 353.628 152.196C353.433 150.089 354.222 148.294 355.39 148.184C356.561 148.075 357.669 149.695 357.864 151.799Z" fill="#040505"/>
<path d="M338.75 155.192C338.947 157.296 338.156 159.094 336.988 159.201C335.817 159.311 334.711 157.691 334.514 155.586C334.317 153.479 335.108 151.685 336.276 151.575C337.447 151.467 338.553 153.085 338.75 155.192Z" fill="#040505"/>
<path d="M366.646 157.615C367.32 159.218 366.241 161.2 364.239 162.041C362.237 162.885 360.065 162.268 359.394 160.668C358.72 159.066 359.796 157.084 361.8 156.242C363.802 155.399 365.972 156.015 366.646 157.615Z" fill="#DC4B44"/>
<path d="M335.373 163.522C335.088 165.174 333.221 166.218 331.159 165.923C330.764 163.891 330.435 161.834 330.173 159.765C330.777 159.62 331.418 159.61 332.075 159.72C334.217 160.112 335.69 161.819 335.373 163.522Z" fill="#DC4B44"/>
<path d="M359.122 140.978C358.885 140.978 358.648 140.911 358.436 140.771C355.732 138.986 351.88 139.969 351.838 139.979C351.181 140.157 350.487 139.757 350.315 139.091C350.138 138.424 350.537 137.743 351.204 137.568C351.404 137.511 356.179 136.29 359.809 138.689C360.385 139.068 360.542 139.845 360.163 140.419C359.923 140.783 359.526 140.978 359.122 140.978Z" fill="#872B39"/>
<path d="M331.216 146.947C330.547 146.947 329.991 146.415 329.968 145.741C329.873 142.855 333.411 141.677 335.515 141.437C336.176 141.347 336.813 141.849 336.895 142.533C336.975 143.217 336.486 143.836 335.799 143.916C334.624 144.056 332.434 144.71 332.464 145.658C332.487 146.347 331.948 146.924 331.259 146.947C331.244 146.947 331.229 146.947 331.216 146.947Z" fill="#872B39"/>
<path d="M339.589 174.487C339.589 174.487 340.849 173.986 347.425 172.605C353.997 171.222 357.659 170.81 357.659 170.81C357.659 170.81 357.41 179.13 347.425 179.992C339.139 180.708 339.589 174.487 339.589 174.487Z" fill="#040505"/>
<path d="M331.703 134.942C331.703 134.942 322.951 133.604 319.621 127.571C319.621 127.571 322.966 128.195 325.662 127.571C325.662 127.571 321.493 124.66 322.951 117.585C322.951 117.585 331.671 118.834 334.903 117.585L330.173 114.051C330.173 114.051 336.983 114.465 346.191 112.386C355.403 110.306 374.704 109.473 386.166 118.002C397.629 126.532 405.18 166.25 380.188 183.419L381.706 174.737C381.706 174.737 385.982 166.887 384.317 161.48C382.652 156.07 379.676 160.439 379.676 160.439C379.676 160.439 371.004 146.425 371.004 137.206C371.004 127.987 371.004 127.987 371.004 127.987C371.004 127.987 343.578 121.717 331.703 134.942Z" fill="#872B39"/>
<path d="M380.435 158.384C380.435 158.384 385.929 150.611 392.033 154.505C398.136 158.399 389.771 172.533 383.57 172.603C377.367 172.675 380.435 158.384 380.435 158.384Z" fill="#F57559"/>
<path d="M347.724 153.412C347.724 157.56 350.355 160.923 353.598 160.923C356.843 160.923 359.471 157.56 359.471 153.412C359.471 149.265 356.843 145.903 353.598 145.903C350.355 145.903 347.724 149.265 347.724 153.412Z" stroke="#040505" stroke-width="5" stroke-miterlimit="10"/>
<path d="M328.61 155.389C328.61 159.535 331.239 162.897 334.484 162.897C337.729 162.897 340.358 159.535 340.358 155.389C340.358 151.24 337.729 147.88 334.484 147.88C331.239 147.88 328.61 151.24 328.61 155.389Z" stroke="#040505" stroke-width="5" stroke-miterlimit="10"/>
<path d="M341.805 148.923C341.805 148.923 342.003 158.626 336.673 166.38C336.673 166.38 336.461 170.478 343.832 168.948" stroke="#DC4B44" stroke-width="7.5" stroke-miterlimit="10"/>
<path d="M359.367 151.999C359.367 151.999 379.976 150.496 383.725 151.999" stroke="#040505" stroke-width="5" stroke-miterlimit="10" stroke-linecap="round"/>
<path d="M347.724 153.412C347.724 153.412 342.092 151.644 340.357 154.418" stroke="#040505" stroke-width="5" stroke-miterlimit="10" stroke-linecap="round"/>
<path d="M395.22 357.945C388.61 357.835 384.868 388.265 397.807 391.47C397.807 391.47 413.308 358.247 395.22 357.945Z" fill="#421922"/>
<path d="M395.51 385.395C392.677 386.538 372.834 393.583 368.912 393.048C368.765 393.031 368.618 393.013 368.468 392.974C364.641 392.23 360.355 388.483 357.674 387.519C354.891 386.508 353.927 383.852 351.501 382.05C349.052 380.253 347.542 374.758 347.542 374.758C347.542 374.758 339.269 367.344 342.731 366.356C347.05 365.14 351.938 369.476 351.938 369.476L362.634 371.306C362.634 371.306 375.482 366.229 374.941 363.65C374.377 361.076 369.079 363.188 364.426 362.806C361.351 362.569 361.121 359.212 361.121 359.212L369.042 357.217C369.042 357.217 380.607 355.34 383.086 356.368C385.56 357.372 394.704 363.148 394.704 363.148L411.823 362.774L415.133 385.138C415.133 385.138 398.338 384.232 395.51 385.395Z" fill="#F57559"/>
<path d="M368.468 392.973C364.641 392.229 360.355 388.482 357.674 387.519C354.891 386.508 353.927 383.852 351.501 382.05C349.052 380.252 347.542 374.758 347.542 374.758C349.649 376.508 359.751 378.343 360.522 379.181C361.294 380.02 360.091 380.866 360.45 382.579C360.809 384.289 364.389 384.324 364.179 386.156C363.967 387.986 364.12 389.741 366.681 390.587C367.782 390.951 368.201 391.935 368.468 392.973Z" fill="#EF5640"/>
<path d="M440.81 233.545C423.181 242.808 416.94 281.4 418.813 297.052L438.199 348.557C438.199 348.557 434.394 355.504 437.515 356.753L395.22 357.946C395.22 357.946 406.047 369.219 397.807 391.471C397.807 391.471 453.089 408.036 476.773 391.471C483.626 386.678 487.298 373.008 485.58 363.021C473.446 292.441 440.81 233.545 440.81 233.545Z" fill="#6C2230"/>
<path d="M380.909 205.04C380.909 205.04 373.268 216.825 357.659 225.247C357.659 225.247 353.817 222.337 351.613 209.773C351.613 209.773 342.272 215.784 341.663 233.852L351.114 225.562L355.747 235.33L365.912 225.352L371.546 235.732C371.546 235.732 385.23 225.247 386.918 213.537L380.909 205.04Z" fill="#BBC7C7"/>
<path d="M234.179 169.351L182.615 145.231C182.615 145.231 2.75125 179.373 0.0672627 100.12C-4.38182 -31.2127 213.286 -11.6097 235.878 36.6302C265.61 100.12 215.426 129.655 215.426 129.655L234.179 169.351Z" fill="#CBEBFF"/>
<path d="M187 79.1207L186.958 80.9052C186.943 81.5558 186.288 81.9972 185.676 81.7727L181.509 80.2203L181.749 78.6717L185.934 78.1581C186.513 78.0858 187.015 78.5424 187 79.1207Z" fill="#512E22"/>
<path d="M181.748 78.6705C173.113 77.7726 161.135 71.8724 153.122 60.4189C154.461 62.3882 155.514 65.8212 156.494 69.4542C162.953 75.4827 171.457 79.1722 181.511 80.2209L181.748 78.6705Z" fill="#FBAE17"/>
<path d="M105.139 90.7079L105.941 105.246L104.019 105.939C102.79 106.383 101.792 107.31 101.261 108.508L100.012 111.323H107.924L111.792 106.677L111.735 90.921C109.416 90.9583 107.21 90.8838 105.139 90.7079Z" fill="#DC9427"/>
<path d="M146.269 90.5624L140.724 84.2958C139.306 84.9346 137.899 85.5125 136.499 86.0437L143.312 93.9506L145.763 101.951L141.933 106.638H140.584C138.911 106.638 137.397 107.636 136.743 109.179L135.839 111.326H145.763L151.858 102.224L149.424 92.2852C147.709 91.9119 147.07 91.492 146.269 90.5624Z" fill="#DC9427"/>
<path d="M165.738 88.7144L158.652 77.3571C157.909 74.963 157.222 72.1551 156.494 69.4581C155.511 65.8226 154.458 62.3903 153.121 60.4211C152.574 59.6157 151.979 59.0541 151.318 58.825C148.358 57.8016 124.938 61.208 124.938 61.208C124.938 61.208 117.123 57.7462 116.462 57.7277L99.5069 71.9039C97.5598 84.3621 98.7716 76.7993 94.1533 105.248L92.0806 105.99C90.9463 106.404 90.0263 107.265 89.5349 108.366L88.2233 111.325H96.1336L101.314 105.37L103.161 90.5099C103.804 90.5875 104.465 90.654 105.138 90.7094C107.207 90.8831 109.416 90.9607 111.733 90.9237C119.07 90.8018 127.535 89.468 136.498 86.0468C137.895 85.5148 139.306 84.9348 140.721 84.2993L146.267 90.5653C147.069 91.4927 147.708 91.9139 149.422 92.287C151.296 92.6971 154.443 93.0555 160.492 93.957L162.949 101.948L159.117 106.633C157.521 106.633 154.964 106.256 154.17 108.831L153.398 111.325H162.949L169.045 102.226L165.738 88.7144Z" fill="#FBAE17"/>
<path d="M59.8546 54.5168L58.9747 60.117L58.138 57.7515C57.7017 56.4965 58.3328 55.1118 59.5697 54.6286L59.8546 54.5168Z" fill="#472415"/>
<path d="M156.7 107.694V111.324H155.076L156.7 107.694Z" fill="#512E22"/>
<path d="M139.128 107.693V111.324H137.506L139.128 107.693Z" fill="#512E22"/>
<path d="M103.311 107.694V111.324H101.688L103.311 107.694Z" fill="#512E22"/>
<path d="M91.7854 107.694V111.325H90.1652L91.7854 107.694Z" fill="#512E22"/>
<path d="M74.6283 44.1879L67.4984 48.3601C66.4893 48.9362 66.4563 49.7398 65.7444 52.2166L59.8548 54.5174L58.9741 60.1169C59.7044 62.2489 61.4033 63.5919 63.4069 64.2964C63.7152 65.555 63.5977 65.6027 64.8857 65.7385L76.0301 66.9384L82.4114 57.7281L74.6283 44.1879Z" fill="#FBAE17"/>
<path d="M104.509 39.9933L94.0505 36.0647C82.0057 31.2777 74.632 44.1843 74.632 44.1843L82.4143 57.7244L76.034 66.9348L79.5766 75.6279L95.9923 93.9362L99.5049 71.9055L116.46 57.7206L104.509 39.9933Z" fill="#874C20"/>
<path d="M70.1504 51.7895C70.1504 52.2321 69.7912 52.5912 69.3486 52.5912C68.906 52.5912 68.5469 52.2321 68.5469 51.7895C68.5469 51.3469 68.906 50.9878 69.3486 50.9878C69.7912 50.9878 70.1504 51.3469 70.1504 51.7895Z" fill="#472415"/>
<path d="M82.5785 45.0399C83.156 46.5738 82.3762 48.299 80.8422 48.8765L78.7455 43.3C80.2794 42.7225 82.0009 43.506 82.5785 45.0399Z" fill="#FBAE17"/>
</svg>
