<svg width="106" height="21" viewBox="0 0 106 21" fill="none" xmlns="http://www.w3.org/2000/svg">
<path fill-rule="evenodd" clip-rule="evenodd" d="M56.5 16C59.5376 16 62 13.5376 62 10.5C62 7.46243 59.5376 5 56.5 5C53.4624 5 51 7.46243 51 10.5C51 13.5376 53.4624 16 56.5 16Z" fill="white"/>
<path opacity="0.3" d="M66 10.5C66 15.7467 61.7467 20 56.5 20C51.2533 20 47 15.7467 47 10.5C47 5.25329 51.2533 1 56.5 1C61.7467 1 66 5.25329 66 10.5Z" stroke="white" stroke-width="2"/>
<path opacity="0.2" fill-rule="evenodd" clip-rule="evenodd" d="M26.5 15C28.9853 15 31 12.9853 31 10.5C31 8.01472 28.9853 6 26.5 6C24.0147 6 22 8.01472 22 10.5C22 12.9853 24.0147 15 26.5 15Z" fill="white"/>
</svg>
