<svg width="750" height="1179" viewBox="0 0 750 1179" fill="none" xmlns="http://www.w3.org/2000/svg">
<path d="M89.7856 379.796C89.7856 379.796 76.0621 370.458 55.9931 377.65C35.9218 384.842 31.4133 411.872 36.358 433.808C41.3004 455.745 13.668 530.64 13.668 530.64C13.668 530.64 28.0296 550.838 78.2267 543.106C78.2267 543.106 115.655 475.088 112.875 426.256C110.097 377.424 89.7856 379.796 89.7856 379.796" fill="#1B3540"/>
<path d="M105.631 464.172C124.495 458.141 136.04 473.85 146.849 503.082C157.656 532.316 161.292 535.247 161.292 535.247L203.012 562.053L199.546 577.677C199.546 577.677 159.839 562.128 150.24 552.241C140.641 542.352 113.024 492.263 113.024 492.263L105.631 464.172" fill="#EF5640"/>
<path d="M13.6873 653.036C13.6873 653.036 5.50341 694.488 6.85195 756.883C6.85195 756.883 -25.4003 804.444 1.21562 940.142H15.1785C15.1785 940.142 26.5842 824.689 35.3111 793.403C44.0381 762.12 76.2625 752.52 78.0074 657.401L13.6873 653.036" fill="#F57559"/>
<path d="M47.2662 826.623C47.2662 826.623 47.4478 846.571 34.3586 846.911C15.8758 847.409 15.1951 827.276 -5.74866 827.931C-26.6924 828.585 -69.8891 833.822 -83.6336 801.097C-90.7286 784.183 -81.0158 762.48 -103.923 746.118C-126.83 729.756 -115.704 711.43 -103.923 701.613C-92.1418 691.823 -109.001 681.087 -96.7231 676.088C-93.7914 674.909 -90.9121 675.041 -88.2409 675.93C-86.6705 676.479 -85.2041 677.239 -83.7911 678.182C-77.2981 682.502 -72.7425 690.014 -72.7425 690.014C-38.0542 595.008 23.7028 582.468 23.7028 582.468L84.782 603.544C86.2463 751.355 47.2662 826.623 47.2662 826.623Z" fill="#203E50"/>
<path d="M105.631 464.172C105.631 464.172 91.3821 468.98 71.1127 465.903C50.8457 462.824 44.2551 450.1 30.008 458.292C8.61956 470.586 18.6281 512.912 23.9975 534.92C26.0018 543.123 28.539 564.682 23.7075 582.473C23.7075 582.473 52.1874 604.631 84.7844 603.533L102.568 564.852C102.568 564.852 141.244 518.576 105.631 464.172Z" fill="#D2DADC"/>
<path d="M69.441 428.67C69.441 428.67 71.8108 448.695 64.4043 466.908C64.4043 466.908 74.9776 482.52 85.0698 472.246C85.0698 472.246 85.9941 453.896 97.329 433.136C104.922 419.234 69.441 428.67 69.441 428.67" fill="#EF5640"/>
<path d="M53.2344 429.352C53.2344 429.352 44.3141 423.709 45.3209 432.415C46.4882 442.502 56.3258 444.469 57.3751 440.941C58.422 437.416 53.2344 429.352 53.2344 429.352" fill="#F57559"/>
<path d="M104.408 418.432C104.408 418.432 110.071 409.523 112.873 417.828C116.12 427.451 108.058 433.424 105.605 430.682C103.155 427.939 104.408 418.432 104.408 418.432" fill="#F57559"/>
<path d="M85.9893 459.504C69.8087 463.125 58.3111 454.604 51.2159 422.907C47.5539 406.557 53.6281 394.666 71.7493 390.61C89.8706 386.552 99.7482 394.871 103.41 411.221C111.036 445.278 102.703 455.761 85.9893 459.504Z" fill="#F57559"/>
<path d="M100.583 423.726C101.229 425.287 100.17 427.211 98.2179 428.022C96.2631 428.831 94.1527 428.222 93.5042 426.659C92.8582 425.096 93.9169 423.171 95.8717 422.363C97.8241 421.551 99.9345 422.162 100.583 423.726Z" fill="#DC4B44"/>
<path d="M67.5027 432.061C67.7645 433.733 66.2813 435.353 64.1921 435.681C62.1029 436.006 60.1953 434.917 59.9335 433.245C59.6742 431.573 61.155 429.953 63.2442 429.628C65.3357 429.3 67.241 430.389 67.5027 432.061Z" fill="#DC4B44"/>
<path d="M89.3164 408.955C89.1584 408.955 89.0005 408.91 88.859 408.816C86.093 406.97 82.1717 407.953 82.1292 407.96C81.6788 408.078 81.2356 407.807 81.12 407.364C81.0068 406.92 81.2733 406.47 81.7166 406.354C81.9076 406.307 86.402 405.182 89.7786 407.439C90.1583 407.691 90.262 408.205 90.0073 408.587C89.847 408.825 89.5852 408.955 89.3164 408.955" fill="#1B3540"/>
<path d="M58.8534 415.777C58.7096 415.777 58.561 415.739 58.4266 415.657C58.0352 415.423 57.9079 414.914 58.146 414.523C60.2376 411.042 64.7838 410.141 64.9771 410.104C65.4181 410.033 65.8567 410.311 65.9439 410.761C66.0288 411.21 65.7364 411.643 65.286 411.731C65.2483 411.74 61.2704 412.539 59.5632 415.376C59.4099 415.633 59.134 415.777 58.8534 415.777Z" fill="#1B3540"/>
<path d="M90.0263 417.833C90.4743 419.842 89.9343 421.674 88.819 421.922C87.7013 422.172 86.4327 420.748 85.9823 418.739C85.532 416.73 86.0719 414.897 87.1896 414.647C88.305 414.397 89.5759 415.824 90.0263 417.833" fill="#202324"/>
<path d="M67.5472 422.672C67.9976 424.681 67.4553 426.51 66.3399 426.76C65.2246 427.01 63.9536 425.586 63.5033 423.575C63.0552 421.566 63.5952 419.736 64.7106 419.486C65.8283 419.236 67.0969 420.66 67.5472 422.672Z" fill="#202324"/>
<path d="M74.8147 441.698C74.8147 441.698 85.2064 440.852 89.7857 436.985C89.7857 436.985 88.5265 445.103 82.872 445.667C77.2175 446.231 74.8147 441.698 74.8147 441.698" fill="#202324"/>
<path d="M84.3624 418.052C84.3624 418.052 84.7278 412.775 86.751 412.693C88.7742 412.615 91.1982 416.522 91.1982 416.522L93.7284 414.357L90.9412 415.376C90.9412 415.376 88.4559 411.29 86.5317 411.712C83.7941 412.313 84.3624 418.052 84.3624 418.052Z" fill="#202324"/>
<path d="M68.7877 422.176C68.7877 422.176 66.2057 417.557 64.3429 418.347C62.4777 419.137 61.9542 423.707 61.9542 423.707L58.7402 422.827L61.6972 422.561C61.6972 422.561 62.2018 417.805 64.1235 417.366C66.8565 416.741 68.7877 422.176 68.7877 422.176" fill="#202324"/>
<path d="M80.0564 432.325L79.2241 430.745C80.5705 430.035 80.6837 429.078 80.5445 428.401C80.3465 427.444 79.566 426.685 79.0024 426.64C78.6794 426.623 78.4011 426.899 78.1842 427.475L76.51 426.852C77.2268 424.923 78.5851 424.82 79.1392 424.86C80.5611 424.966 81.9452 426.362 82.2942 428.036C82.6597 429.79 81.8226 431.394 80.0564 432.325" fill="#DC4B44"/>
<path d="M54.5148 435.058C54.5148 435.058 49.5253 416.699 52.487 403.716C52.487 403.716 66.5619 384.116 93.7284 393.805C93.7284 393.805 101.786 406.779 105.778 424.935C105.778 424.935 106.792 418.413 104.089 403.888C101.385 389.363 88.4983 380.338 70.8275 383.246C53.1566 386.151 34.2455 403.732 54.5148 435.058" fill="#1B3540"/>
<path d="M82.9995 389.733C82.9995 389.733 84.077 394.524 79.4153 406.864C79.4153 406.864 76.0622 403.36 72.1361 406.864C68.2101 410.368 60.2353 409.198 57.5142 411.091C54.793 412.985 54.7931 417.317 54.7931 417.317C54.7931 417.317 52.4351 411.924 54.7931 405.458C54.7931 405.458 49.4946 412.193 50.1973 420.512C50.1973 420.512 43.0125 419.349 43.3379 407.496C43.6656 395.642 60.5159 376.464 79.4153 377.709C98.317 378.952 102.816 408.88 102.816 408.88C102.816 408.88 101.092 407.524 98.3948 408.128C98.3948 408.128 97.9775 401.789 93.7284 393.805C93.7284 393.805 95.6879 399.568 93.7284 405.786C93.7284 405.786 88.4629 403.025 84.3129 403.888C84.3129 403.888 86.876 398.875 82.9995 389.733" fill="#1B3540"/>
<path d="M25.2095 462.074C34.4104 454.821 41.5716 464.045 43.3283 476.804C45.0827 489.561 28.4493 564.828 15.6206 562.053C10.6698 560.982 8.65088 541.267 8.65088 541.267C8.65088 541.267 13.668 520.104 16.914 488.252C18.4062 473.614 20.4131 465.854 25.2095 462.074" fill="#F57559"/>
<path d="M-1.55509 551.416C-13.9391 539.612 -36.1439 500.457 -41.7856 480.511L-32.3859 476.729C-32.3859 476.729 -4.08428 517.216 8.81657 527.426C21.7172 537.634 26.254 549.004 20.4922 558.74C14.73 568.476 1.05073 553.899 -1.55509 551.416" fill="#F57559"/>
<path d="M40.619 676.788C40.619 678.177 39.4919 679.304 38.1031 679.304C36.7118 679.304 35.5847 678.177 35.5847 676.788C35.5847 675.397 36.7118 674.27 38.1031 674.27C39.4919 674.27 40.619 675.397 40.619 676.788Z" fill="#6196B4"/>
<path d="M78.8753 686.074C78.8753 687.465 77.7481 688.593 76.3593 688.593C74.968 688.593 73.8433 687.465 73.8433 686.074C73.8433 684.685 74.968 683.558 76.3593 683.558C77.7481 683.558 78.8753 684.685 78.8753 686.074Z" fill="#6196B4"/>
<path d="M20.0954 626.608C20.0954 627.997 18.9678 629.124 17.5779 629.124C16.1879 629.124 15.0605 627.997 15.0605 626.608C15.0605 625.217 16.1879 624.09 17.5779 624.09C18.9678 624.09 20.0954 625.217 20.0954 626.608Z" fill="#6196B4"/>
<path d="M28.5697 650.52C28.5697 651.909 27.4426 653.036 26.0538 653.036C24.6625 653.036 23.5354 651.909 23.5354 650.52C23.5354 649.129 24.6625 648.002 26.0538 648.002C27.4426 648.002 28.5697 649.129 28.5697 650.52Z" fill="#6196B4"/>
<path d="M68.3798 664.15C68.3798 665.541 67.2526 666.666 65.8638 666.666C64.4726 666.666 63.3455 665.541 63.3455 664.15C63.3455 662.761 64.4726 661.634 65.8638 661.634C67.2526 661.634 68.3798 662.761 68.3798 664.15Z" fill="#6196B4"/>
<path d="M73.8432 622.901C73.8432 624.29 72.7161 625.417 71.3248 625.417C69.936 625.417 68.8088 624.29 68.8088 622.901C68.8088 621.51 69.936 620.383 71.3248 620.383C72.7161 620.383 73.8432 621.51 73.8432 622.901Z" fill="#6196B4"/>
<path d="M47.7566 614.316C47.7566 615.705 46.6318 616.832 45.2406 616.832C43.8517 616.832 42.7246 615.705 42.7246 614.316C42.7246 612.925 43.8517 611.797 45.2406 611.797C46.6318 611.797 47.7566 612.925 47.7566 614.316Z" fill="#6196B4"/>
<path d="M16.1855 601.646C16.1855 603.035 15.0579 604.162 13.6681 604.162C12.278 604.162 11.1516 603.035 11.1516 601.646C11.1516 600.255 12.278 599.128 13.6681 599.128C15.0579 599.128 16.1855 600.255 16.1855 601.646Z" fill="#6196B4"/>
<path d="M3.27432 695.341C3.27432 696.732 2.14695 697.86 0.756912 697.86C-0.633131 697.86 -1.7605 696.732 -1.7605 695.341C-1.7605 693.952 -0.633131 692.825 0.756912 692.825C2.14695 692.825 3.27432 693.952 3.27432 695.341Z" fill="#6196B4"/>
<path d="M55.3092 708.56C55.3092 709.949 54.1821 711.076 52.7909 711.076C51.402 711.076 50.2749 709.949 50.2749 708.56C50.2749 707.169 51.402 706.042 52.7909 706.042C54.1821 706.042 55.3092 707.169 55.3092 708.56Z" fill="#6196B4"/>
<path d="M52.7909 636.92C52.7909 638.311 51.6638 639.438 50.2749 639.438C48.8837 639.438 47.7566 638.311 47.7566 636.92C47.7566 635.531 48.8837 634.404 50.2749 634.404C51.6638 634.404 52.7909 635.531 52.7909 636.92Z" fill="#6196B4"/>
<path d="M83.0419 642.197C83.0419 643.588 81.9148 644.715 80.5259 644.715C79.1347 644.715 78.0076 643.588 78.0076 642.197C78.0076 640.808 79.1347 639.681 80.5259 639.681C81.9148 639.681 83.0419 640.808 83.0419 642.197Z" fill="#6196B4"/>
<path d="M22.6111 727.636C22.6111 729.025 21.4839 730.152 20.0955 730.152C18.7046 730.152 17.5781 729.025 17.5781 727.636C17.5781 726.245 18.7046 725.118 20.0955 725.118C21.4839 725.118 22.6111 726.245 22.6111 727.636Z" fill="#6196B4"/>
<path d="M0.757049 772.406C0.757049 773.794 -0.369382 774.922 -1.76038 774.922C-3.15019 774.922 -4.27686 773.794 -4.27686 772.406C-4.27686 771.014 -3.15019 769.887 -1.76038 769.887C-0.369382 769.887 0.757049 771.014 0.757049 772.406Z" fill="#6196B4"/>
<path d="M68.3798 741.381C68.3798 742.77 67.2526 743.897 65.8638 743.897C64.4726 743.897 63.3455 742.77 63.3455 741.381C63.3455 739.99 64.4726 738.863 65.8638 738.863C67.2526 738.863 68.3798 739.99 68.3798 741.381Z" fill="#6196B4"/>
<path d="M33.6039 760.462C33.6039 761.851 32.4768 762.978 31.0879 762.978C29.6967 762.978 28.5696 761.851 28.5696 760.462C28.5696 759.071 29.6967 757.946 31.0879 757.946C32.4768 757.946 33.6039 759.071 33.6039 760.462Z" fill="#6196B4"/>
<path d="M20.0954 803.557C20.0954 804.948 18.9678 806.075 17.5779 806.075C16.1879 806.075 15.0605 804.948 15.0605 803.557C15.0605 802.168 16.1879 801.041 17.5779 801.041C18.9678 801.041 20.0954 802.168 20.0954 803.557Z" fill="#6196B4"/>
<path d="M57.4952 788.73C57.4952 790.121 56.3681 791.248 54.9793 791.248C53.588 791.248 52.4609 790.121 52.4609 788.73C52.4609 787.341 53.588 786.214 54.9793 786.214C56.3681 786.214 57.4952 787.341 57.4952 788.73Z" fill="#6196B4"/>
<path d="M40.619 832.027C40.619 833.419 39.4919 834.546 38.1031 834.546C36.7118 834.546 35.5847 833.419 35.5847 832.027C35.5847 830.638 36.7118 829.511 38.1031 829.511C39.4919 829.511 40.619 830.638 40.619 832.027Z" fill="#6196B4"/>
<path d="M37.8673 964.564H-3.47082C-6.16766 956.867 -1.19299 949.145 -2.03102 942.363C-3.47081 930.896 3.20538 937.232 3.20538 937.232C4.38344 924.902 21.715 922.57 21.531 928.069C21.2434 936.159 22.8138 941.158 25.1176 944.509C29.777 951.238 37.4216 951.187 38.7303 956.001C38.8624 956.473 38.9661 956.945 39.0439 957.365C40.3267 963.385 37.8673 964.564 37.8673 964.564" fill="#203E50"/>
<path d="M39.0438 957.365C30.4843 959.355 10.7443 956.761 9.95955 951.787C9.19981 946.97 19.8292 944.719 25.1175 944.509C29.7769 951.238 37.4215 951.187 38.7302 956.001C38.8623 956.473 38.966 956.945 39.0438 957.365" fill="#284D5E"/>
<path d="M611.764 946.687C609.727 945.617 607.848 943.264 606.159 940.288C606.159 940.286 604.707 931.485 606.159 922.24C607.614 912.992 603.587 905.441 590.497 902.605C577.771 899.848 570.221 905.979 573.159 931.563C573.159 931.566 573.161 931.568 573.161 931.573C571.226 942.2 570.825 954.337 575.239 964.564H614.412C614.412 964.564 620.59 951.321 611.764 946.687" fill="#D2DADC"/>
<path d="M646.13 808.794C646.13 808.794 646.13 834.319 631.729 860.498C617.067 887.157 598.941 923.746 598.941 923.746C598.941 923.746 586.864 935.529 579.188 916.012C579.188 916.012 584.607 848.064 597.041 823.192C609.477 798.322 646.13 808.794 646.13 808.794" fill="#F57559"/>
<path d="M845.253 748.736C839.047 763.686 791.114 764.497 791.114 764.497L787.447 759.104L786.478 757.692L778.991 746.642C778.991 746.642 699.562 668.731 684.089 675.277H684.063C683.62 675.485 683.174 675.72 682.754 676.036C672.127 683.627 671.132 725.227 658.563 795.049C657.361 801.673 654.689 809.396 652.673 814.736C652.437 815.312 652.23 815.861 652.02 816.385C650.867 819.344 650.056 821.228 650.056 821.228C601.571 840.863 585.574 802.064 585.574 802.064C585.574 802.064 586.152 800.94 586.989 799.134C587.173 798.74 587.383 798.296 587.59 797.825C590.13 792.222 594.188 782.51 594.136 777.379C594.084 771.75 594.032 766.329 594.006 761.12C594.006 760.649 594.006 760.203 593.978 759.76C593.9 742.978 593.926 728.396 594.032 715.724V714.389C594.084 708.865 594.162 703.708 594.268 698.89V697.53C594.685 675.459 595.393 660.721 596.152 650.903C596.178 650.459 596.23 649.988 596.256 649.568C597.593 633.048 599.005 631.425 599.005 631.425L589.293 563.906H695.268C695.268 563.906 711.185 579.851 731.841 600.899C732.286 601.319 732.706 601.738 733.123 602.182C740.612 609.8 748.7 618.074 756.817 626.478C757.158 626.818 757.472 627.132 757.76 627.445C760.953 630.744 764.148 634.043 767.314 637.316C767.708 637.707 768.074 638.127 768.467 638.521C779.097 649.542 789.411 660.405 798.235 669.91C798.548 670.224 798.836 670.538 799.124 670.851C811.192 683.917 820.381 694.36 823.55 699.23C831.954 712.086 838.498 728.813 842.11 739.155C842.11 739.155 842.11 739.155 842.11 739.181C842.294 739.653 842.452 740.073 842.608 740.516C844.31 745.543 845.253 748.736 845.253 748.736" fill="#872B39"/>
<path d="M614.87 641.529C610.55 646.634 604.268 649.778 596.152 650.902C596.178 650.459 596.23 649.987 596.256 649.568C603.9 648.469 609.817 645.484 613.875 640.666C621.154 632.078 619.975 620.482 619.949 620.378L621.258 620.22C621.31 620.718 622.514 632.498 614.87 641.529Z" fill="#61242F"/>
<path d="M733.124 602.181C732.706 602.207 732.312 602.236 731.895 602.236C720.115 602.236 707.808 589.354 707.181 588.701L708.124 587.783C708.28 587.967 720.532 600.795 731.841 600.899C732.287 601.318 732.706 601.738 733.124 602.181Z" fill="#61242F"/>
<path d="M652.673 814.736C652.437 815.311 652.23 815.861 652.02 816.384C644.166 819.266 636.967 820.442 630.395 820.442C609.451 820.442 594.947 808.322 586.989 799.133C587.173 798.739 587.383 798.296 587.59 797.825C597.774 809.763 619.532 827.382 652.673 814.736" fill="#61242F"/>
<path d="M681.132 650.954C682.886 658.469 684.011 666.663 684.063 675.277C683.62 675.484 683.174 675.72 682.754 676.036C682.702 636.504 659.82 605.664 659.559 605.325L660.606 604.539C660.815 604.801 674.376 623.125 680.79 649.594C683.462 647.839 685.268 645.326 686.027 642.081C689.326 628.204 674.324 605.532 674.195 605.299L675.268 604.565C675.895 605.532 690.713 627.942 687.31 642.369C686.421 646.139 684.325 648.992 681.132 650.954" fill="#61242F"/>
<path d="M618.117 760.884L617.593 760.99C617.096 761.12 611.154 762.351 604.32 762.351C600.889 762.351 597.277 762.037 594.006 761.12C594.006 760.648 594.006 760.203 593.978 759.759C602.618 762.245 614.163 760.335 616.782 759.837L614.582 705.358C613.351 708.341 610.918 712.425 606.362 714.677C604.188 715.776 601.755 716.299 599.083 716.299C597.487 716.299 595.813 716.117 594.032 715.724V714.389C598.56 715.436 602.488 715.148 605.761 713.498C611.309 710.751 613.509 704.86 614.191 702.528C609.817 703.184 600.995 700.958 594.268 698.89V697.529C601.519 699.727 611.335 702.267 614.87 701.038L615.709 700.748L618.117 760.884" fill="#61242F"/>
<path d="M714.851 276.853C714.851 276.853 711.937 270.147 699.635 270.144C690.154 270.142 686.525 275.379 686.525 275.379C680.851 291.961 674.756 355.445 672.572 357.706C671.466 358.85 601.137 406.217 601.137 406.217C639.303 406.934 663.117 453.979 663.117 453.979C664.35 438.52 707.454 377.259 707.916 371.795C708.789 361.491 727.023 315.467 714.851 276.853" fill="#CF2548"/>
<path d="M592.754 608.798C592.754 608.798 592.4 622.043 596.685 622.918C600.969 623.79 635.875 634.106 676.018 615.858C716.16 597.609 723.142 584.084 711.362 574.048C699.579 564.013 592.754 608.798 592.754 608.798Z" fill="#CF2548"/>
<path d="M576.67 415.385C576.67 415.385 540.147 411.058 519.203 420.123C519.203 420.123 513.363 446.039 542.135 504.044C570.907 562.048 564.234 598.581 596.685 612.333C625.452 624.523 710.27 588.243 712.934 576.21C719.64 545.919 667.774 492.758 664.501 461.954C661.228 431.149 631.121 384.835 576.67 415.385" fill="#EF294D"/>
<path d="M519.203 420.123C493.678 429.187 464.962 457.846 464.92 471.659C464.88 485.472 488.87 490.797 488.87 490.797L528.204 471.659C528.204 471.659 539.456 463.802 532.293 440.908C525.131 418.012 519.203 420.123 519.203 420.123Z" fill="#CF2548"/>
<path d="M624.082 445.664C616.457 445.664 606.996 442.917 601.12 438.727C597.88 436.419 595.947 433.816 595.532 431.196C594.089 422.129 602.917 417.522 603.294 417.331L604.485 419.66C604.176 419.818 596.977 423.615 598.119 430.785C598.42 432.695 599.984 434.702 602.639 436.596C609.22 441.286 620.602 444.04 628.013 442.731C631.352 442.144 633.538 440.941 634.507 439.163C635.693 436.987 634.679 434.525 634.67 434.499L637.075 433.467C637.141 433.613 638.603 437.079 636.823 440.383C635.46 442.915 632.649 444.573 628.468 445.308C627.112 445.549 625.634 445.664 624.082 445.664" fill="#D2DADC"/>
<path d="M591.714 473.286C586.067 473.286 576.689 470.933 575.373 461.659C574.704 456.94 575.138 453.005 575.515 449.534C576.076 444.422 576.517 440.385 573.539 435.544C568.62 427.557 561.923 427.02 561.64 427.001L561.798 424.388C562.133 424.407 570.101 424.971 575.767 434.172C579.217 439.777 578.682 444.655 578.118 449.819C577.736 453.3 577.342 456.898 577.967 461.291C579.387 471.296 592.139 470.669 592.679 470.64L592.834 473.253C592.481 473.274 592.106 473.286 591.714 473.286" fill="#D2DADC"/>
<path d="M599.661 426.301C599.661 426.301 618.968 413.15 614.386 398.915C609.805 384.68 547.627 385.663 531.592 402.678C515.558 419.696 566.281 430.991 566.281 430.991C570.207 423.077 595.296 422.205 599.661 426.301" fill="#CF2548"/>
<path d="M564.946 424.075C555.786 420.962 550.355 414.35 552.319 406.715C554.281 399.08 593.667 398.877 601.137 404.977C608.605 411.077 598.083 435.325 564.946 424.075Z" fill="#9F2240"/>
<path d="M560.586 402.612C560.586 402.612 568.691 416.461 564.946 424.075C564.946 424.075 592.754 433.674 592.754 418.116C592.754 418.116 587.512 406.453 589.488 398.915L560.586 402.612" fill="#EF5640"/>
<path d="M551.315 390.52C551.315 390.52 537.652 368.638 538.919 347.739C539.553 337.288 544.927 333.195 544.927 333.195C544.927 333.195 540.588 327.163 545.238 317.946C545.238 317.946 551.673 325.39 574.258 323.041C596.036 320.778 598.208 336.303 598.208 336.303C613.773 338.616 603.273 385.708 592.41 390.52H551.315Z" fill="#F9AD63"/>
<path d="M545.519 370.314C545.519 370.314 537.666 362.479 536.7 371.64C535.58 382.253 545.217 386.528 547.103 383.151C548.985 379.777 545.519 370.314 545.519 370.314Z" fill="#F57559"/>
<path d="M600.505 370.869C600.505 370.869 608.357 363.031 609.324 372.191C610.444 382.805 600.804 387.08 598.92 383.706C597.036 380.329 600.505 370.869 600.505 370.869Z" fill="#F57559"/>
<path d="M572.183 408.757C554.76 408.757 544.927 397.375 544.927 363.243C544.927 345.636 553.885 334.836 573.4 334.836C592.917 334.836 601.137 345.633 601.137 363.243C601.137 399.919 590.184 408.757 572.183 408.757Z" fill="#F57559"/>
<path d="M595.367 375.417C595.671 377.167 594.143 378.898 591.952 379.279C589.764 379.661 587.741 378.551 587.434 376.799C587.13 375.049 588.658 373.319 590.846 372.937C593.037 372.555 595.06 373.665 595.367 375.417Z" fill="#DC4B44"/>
<path d="M559.527 376.37C559.412 378.146 557.521 379.466 555.302 379.32C553.083 379.176 551.378 377.62 551.494 375.846C551.612 374.073 553.503 372.75 555.722 372.897C557.941 373.04 559.643 374.597 559.527 376.37" fill="#DC4B44"/>
<path d="M587.694 357.115C587.465 357.15 587.227 357.096 587.031 356.945C584.256 354.813 580.094 355.568 580.03 355.577C579.568 355.653 579.104 355.355 579.017 354.881C578.925 354.41 579.238 353.955 579.712 353.865C579.894 353.825 584.706 352.962 588.09 355.565C588.472 355.858 588.543 356.405 588.25 356.787C588.109 356.971 587.906 357.082 587.694 357.115" fill="#F9AD63"/>
<path d="M554.347 357.237C554.133 357.209 553.927 357.105 553.781 356.926C553.477 356.553 553.531 356.004 553.901 355.7C557.203 352.995 562.034 353.712 562.223 353.743C562.697 353.818 563.022 354.261 562.949 354.738C562.876 355.212 562.411 355.528 561.954 355.464C561.923 355.455 557.684 354.849 555.007 357.046C554.812 357.204 554.573 357.265 554.347 357.237" fill="#F9AD63"/>
<path d="M585.892 366.95C585.892 369.114 584.919 370.869 583.716 370.869C582.513 370.869 581.54 369.114 581.54 366.95C581.54 364.785 582.513 363.031 583.716 363.031C584.916 363.031 585.892 364.785 585.892 366.95Z" fill="#202324"/>
<path d="M562.624 366.95C562.624 369.114 561.65 370.869 560.447 370.869C559.245 370.869 558.271 369.114 558.271 366.95C558.271 364.785 559.245 363.031 560.447 363.031C561.65 363.031 562.624 364.785 562.624 366.95Z" fill="#202324"/>
<path d="M550.272 338.616C550.272 338.616 568.839 345.414 595.461 343.502C595.461 343.502 601.137 350.578 600.448 375.54C600.448 375.54 616.035 330.573 570.53 330.573C525.025 330.573 545.526 374.542 545.526 374.542C545.526 374.542 541.807 347.041 550.272 338.616" fill="#F9AD63"/>
<path d="M573.286 378.584L571.982 377.271L575.428 373.847C572.086 369.121 572.105 358.187 572.107 357.699L573.958 357.711C573.958 357.829 573.94 369.593 577.352 373.29L577.958 373.946L573.286 378.584" fill="#DC4B44"/>
<path d="M561.723 384.283C561.723 384.283 578.87 385.007 587.529 382.718C587.529 382.718 589.059 395.187 575.77 395.807C561.723 396.46 561.723 384.283 561.723 384.283" fill="#202324"/>
<path d="M635.002 431.429C638.275 430.823 637.948 439.385 635.002 436.905C632.057 434.422 631.729 432.038 635.002 431.429Z" fill="#D2DADC"/>
<path d="M595.539 472.928C595.039 476.219 587.057 473.102 590.368 471.133C593.676 469.164 596.036 469.636 595.539 472.928Z" fill="#D2DADC"/>
<path d="M560.412 490.797C560.412 490.797 555.215 504.124 555.512 511.651C555.809 519.18 558.271 518.197 558.271 518.197C558.271 518.197 554.33 519.748 553.583 524.087C552.838 528.428 563.793 531.614 564.545 531.614C565.3 531.614 573.032 528.669 573.032 528.669L574.652 504.044L567.809 499.745L560.412 490.797" fill="#EF5640"/>
<path d="M564.545 489.073C564.545 489.073 574.006 494.963 577.67 498.562C581.334 502.162 579.243 529.977 577.67 531.288C576.097 532.597 564.036 535.294 561.723 533.783C559.407 532.269 562.624 524.087 562.624 524.087C562.624 524.087 568.681 522.778 567.809 525.07C566.934 527.36 567.809 529.324 567.809 529.324L570.296 528.343C570.296 528.343 569.075 522.125 570.296 517.543C571.516 512.962 561.768 508.13 560.586 499.745C559.407 491.363 564.545 489.073 564.545 489.073" fill="#F57559"/>
<path d="M466.493 475.521C463.463 462.439 476.443 457.813 494.503 460.044C515.447 462.63 558.459 468.108 567.809 490.797C567.809 490.797 570.862 499.745 562.958 504.044C540.866 516.06 472.18 500.087 466.493 475.521Z" fill="#CF2548"/>
<path d="M532.01 466.854C532.01 466.854 507.048 456.483 494.614 455.434C482.178 454.384 511.809 465.25 532.01 466.854Z" fill="#9F2240"/>
<path d="M719.119 242.131C717.233 244.277 714.118 252.629 714.118 252.629C712.809 259.644 712.05 263.521 709.588 266.74C707.155 269.961 708.438 275.641 708.438 275.641C708.438 275.641 698.907 280.536 690.897 274.49C690.897 274.49 691.734 268.862 690.897 267.263C689.248 264.07 683.959 262.368 682.153 255.928C680.347 249.462 674.926 242.261 674.926 242.261C674.926 242.261 676.473 238.91 679.3 240.952C682.153 243.02 683.959 248.18 685.504 248.703C685.817 248.807 686.131 248.885 686.447 248.913C686.447 248.913 686.473 248.913 686.525 248.939C687.704 249.095 688.906 248.833 689.64 248.125C689.692 248.1 689.772 248.048 689.824 247.97C692.415 244.959 693.016 236.109 692.913 232.157C692.755 226.658 692.964 219.068 696.315 220.351C699.666 221.631 696.603 224.696 699.197 236.817L700.451 236.974C700.687 237.837 702.991 229.618 703.542 221.895C703.934 216.58 707.417 218.544 708.176 220.219C708.961 221.895 707.782 227.182 707.546 231.03C707.365 233.57 707.155 236.215 707.023 237.786L708.49 238.597C713.778 229.382 711.972 225.559 715.061 225.375C718.124 225.194 717.023 232.968 715.375 235.928C714.668 237.21 713.986 239.88 713.437 242.497C718.858 236.241 718.254 232.968 720.742 233.362C723.307 233.779 721.003 239.983 719.119 242.131Z" fill="#F57559"/>
<path d="M695.714 256.555C693.882 251.504 687.336 249.2 686.525 248.939C687.704 249.094 688.906 248.833 689.64 248.125C696.053 251.007 695.714 256.555 695.714 256.555" fill="#EF5640"/>
<path d="M581.987 926.164C581.987 926.164 578.366 918.771 581.596 915.595C584.824 912.419 588.628 918.309 594.143 917C599.661 915.692 600.939 911.77 602.372 917.111C603.806 922.455 602.059 939.253 581.987 926.164" fill="#D2DADC"/>
<path d="M602.754 925.836C602.754 925.836 587.937 931.085 580.254 925.836L582.207 932.25C582.207 932.25 598.312 933.957 600.533 929.896L602.754 925.836Z" fill="#ACBFC3"/>
<path d="M602.554 933.806C602.554 933.806 588.988 931.922 582.443 935.291V938.472C582.443 938.472 600.13 934.343 605.848 938.472L602.554 933.806" fill="#ACBFC3"/>
<path d="M581.792 945.074C581.792 945.074 584.423 938.663 592.676 938.203C600.929 937.744 606.499 942.287 606.499 942.287C606.499 942.287 593.41 936.895 581.792 945.074" fill="#ACBFC3"/>
<path d="M603.023 537.506C603.023 537.506 609.746 573.786 596.152 588.243C582.558 602.702 591.549 590.821 595.605 572.181C599.661 553.541 596.572 533.908 603.023 537.506Z" fill="#CF2548"/>
<path d="M665.765 521.314C665.765 521.314 687.194 528.355 698.404 548.148C698.404 548.148 683.436 515.923 665.765 521.314Z" fill="#CF2548"/>
<path d="M109.161 251.766C112.019 251.811 120.298 255.108 120.298 255.108C126.377 258.85 129.758 260.887 133.798 261.227C137.818 261.583 139.469 268.492 139.469 268.492C139.469 268.492 155.326 271.96 156.222 261.962C156.222 261.962 147.356 249.415 146.736 247.722C145.475 244.357 147.764 239.295 144.204 233.633C140.624 227.953 138.926 219.103 138.926 219.103C138.926 219.103 135.406 217.997 135.022 221.464C134.64 224.968 137.247 229.768 136.599 231.266C136.467 231.568 136.314 231.855 136.123 232.103C136.123 232.103 136.104 232.124 136.087 232.181C135.413 233.159 134.411 233.876 133.395 233.944C133.34 233.966 133.248 233.989 133.156 233.975C129.185 233.874 122.222 228.38 119.362 225.649C115.394 221.841 109.626 216.899 108.327 220.245C107.027 223.588 111.354 223.374 118.598 233.433L117.872 234.47C118.353 235.225 110.713 231.412 104.62 226.637C100.418 223.359 99.536 227.257 100.267 228.946C100.984 230.653 105.693 233.329 108.704 235.739C110.708 237.307 112.809 238.927 114.061 239.884L113.677 241.516C103.297 239.25 101.677 235.345 99.4676 237.512C97.2747 239.658 103.776 244.063 107.077 244.827C108.501 245.164 110.937 246.454 113.248 247.802C104.971 247.619 102.95 244.975 101.571 247.083C100.161 249.264 106.306 251.721 109.161 251.766" fill="#F57559"/>
<path d="M135.566 244.105C133.05 239.354 135.738 232.956 136.087 232.181C135.413 233.159 134.411 233.876 133.394 233.944C131.223 240.632 135.566 244.105 135.566 244.105Z" fill="#EF5640"/>
<path d="M575.706 251.766C572.848 251.811 564.567 255.108 564.567 255.108C558.488 258.85 555.106 260.887 551.069 261.227C547.047 261.583 545.398 268.492 545.398 268.492C545.398 268.492 529.541 271.96 528.645 261.962C528.645 261.962 537.511 249.415 538.131 247.722C539.39 244.357 537.103 239.295 540.663 233.633C544.243 227.953 545.941 219.103 545.941 219.103C545.941 219.103 549.461 217.997 549.846 221.464C550.228 224.968 547.62 229.768 548.268 231.266C548.4 231.568 548.553 231.855 548.744 232.103C548.744 232.103 548.763 232.124 548.777 232.181C549.452 233.159 550.456 233.876 551.47 233.944C551.527 233.966 551.616 233.989 551.711 233.975C555.682 233.874 562.645 228.38 565.505 225.649C569.474 221.841 575.241 216.899 576.54 220.245C577.84 223.588 573.513 223.374 566.269 233.433L566.995 234.47C566.514 235.225 574.152 231.412 580.245 226.637C584.449 223.359 585.331 227.257 584.598 228.946C583.883 230.653 579.174 233.329 576.163 235.739C574.159 237.307 572.058 238.927 570.806 239.884L571.188 241.516C581.568 239.25 583.19 235.345 585.399 237.512C587.59 239.658 581.089 244.063 577.79 244.827C576.366 245.164 573.928 246.454 571.619 247.802C579.896 247.619 581.917 244.975 583.294 247.083C584.706 249.264 578.561 251.721 575.706 251.766" fill="#F57559"/>
<path d="M549.301 244.105C551.815 239.354 549.129 232.956 548.778 232.181C549.452 233.159 550.456 233.876 551.47 233.944C553.642 240.632 549.301 244.105 549.301 244.105" fill="#EF5640"/>
<path d="M436.353 732.435L405.89 543.816L344.891 550.628L283.894 543.816L253.431 732.435L238.8 915.371C238.8 915.371 243.452 930.53 273.882 920.059C273.882 920.059 296.455 750.382 299.947 746.644C303.437 742.907 339.286 632.078 339.286 632.078H350.498C350.498 632.078 386.344 742.907 389.837 746.644C393.326 750.382 415.902 920.059 415.902 920.059C446.332 930.53 450.982 915.371 450.982 915.371L436.353 732.435Z" fill="#1B3540"/>
<path d="M325.675 361.161C329.528 364.91 348.484 371.675 358.494 361.161L365.283 367.827C365.283 367.827 357.544 386.026 343.962 386.662C330.382 387.299 320.563 370.47 320.563 370.47L325.675 361.161" fill="#1F436B"/>
<path d="M379.36 359.107C402.049 349.338 475.352 323.372 475.352 323.372C475.352 323.372 524.629 261.634 534.679 252.471C534.679 252.471 545.587 254.435 548.777 268.018C548.777 268.018 517.048 335.961 499.799 355.412C482.551 374.863 395.194 416.932 395.194 416.932L379.36 359.107Z" fill="#1F436B"/>
<path d="M299.947 357.706C306.696 353.436 340.585 376.108 340.585 376.108C340.585 376.108 384.642 352.712 394.982 357.244C394.982 357.244 404.298 369.711 408.043 401.766C411.787 433.823 412.035 565.732 412.035 565.732C412.035 565.732 382.413 576.21 342.349 576.21C296.674 576.21 272.101 563.112 272.101 563.112C272.101 563.112 263.95 380.473 299.947 357.706Z" fill="#F9AD63"/>
<path d="M327.465 354.28C327.465 354.28 332.344 369.626 327.465 375.54C327.465 375.54 332.532 386.175 341.641 386.644C352.163 387.186 355.815 375.54 355.815 375.54C355.815 375.54 350.25 360.718 355.815 355.507L327.465 354.28Z" fill="#EF5640"/>
<path d="M315.3 339.172C315.3 339.172 305.031 319.405 307.066 298.285C309.099 277.162 340.922 272.321 362.37 282.696C362.37 282.696 356.004 276.471 358.494 274.74C360.986 273.012 365.283 284.08 365.283 284.08C365.283 284.08 372.057 282.005 373.095 284.08C374.132 286.158 366.153 287.292 366.153 287.292C366.153 287.292 379.994 294.967 367.063 335.815L315.3 339.172Z" fill="#872B39"/>
<path d="M313.755 326.654C313.755 326.654 306.099 319.014 305.156 327.946C304.064 338.295 313.463 342.464 315.3 339.172C317.137 335.878 313.755 326.654 313.755 326.654Z" fill="#F57559"/>
<path d="M367.372 327.194C367.372 327.194 375.031 319.552 375.972 328.484C377.063 338.833 367.664 343.002 365.827 339.71C363.991 336.418 367.372 327.194 367.372 327.194Z" fill="#F57559"/>
<path d="M339.757 364.139C322.768 364.139 313.18 353.042 313.18 319.757C313.18 302.591 321.914 292.057 340.943 292.057C359.972 292.057 367.99 302.588 367.99 319.757C367.99 355.523 357.308 364.139 339.757 364.139" fill="#F57559"/>
<path d="M362.361 331.629C362.66 333.336 361.17 335.022 359.034 335.395C356.9 335.768 354.926 334.685 354.629 332.978C354.33 331.271 355.82 329.582 357.956 329.212C360.09 328.84 362.064 329.922 362.361 331.629Z" fill="#DC4B44"/>
<path d="M327.418 332.558C327.305 334.289 325.458 335.577 323.296 335.435C321.134 335.294 319.471 333.777 319.585 332.047C319.698 330.318 321.542 329.031 323.704 329.172C325.869 329.311 327.531 330.828 327.418 332.558Z" fill="#DC4B44"/>
<path d="M354.592 314.357C354.368 314.357 354.143 314.272 353.978 314.095C351.623 311.626 347.501 311.733 347.44 311.733C346.98 311.737 346.579 311.381 346.565 310.91C346.546 310.443 346.916 310.051 347.385 310.035C347.565 310.023 352.333 309.912 355.205 312.923C355.528 313.265 355.516 313.8 355.179 314.123C355.014 314.281 354.801 314.357 354.592 314.357Z" fill="#872B39"/>
<path d="M322.603 314.357C322.393 314.357 322.183 314.281 322.018 314.123C321.678 313.8 321.667 313.265 321.987 312.923C324.857 309.912 329.62 310.028 329.807 310.035C330.276 310.051 330.641 310.443 330.627 310.91C330.613 311.379 330.203 311.74 329.752 311.733C329.722 311.725 325.546 311.648 323.218 314.095C323.049 314.272 322.827 314.357 322.603 314.357" fill="#872B39"/>
<path d="M353.122 323.374C353.122 325.482 352.174 327.194 351.003 327.194C349.828 327.194 348.878 325.482 348.878 323.374C348.878 321.264 349.828 319.552 351.003 319.552C352.174 319.552 353.122 321.264 353.122 323.374Z" fill="#202324"/>
<path d="M330.436 323.374C330.436 325.482 329.486 327.194 328.314 327.194C327.14 327.194 326.192 325.482 326.192 323.374C326.189 321.264 327.14 319.552 328.314 319.552C329.486 319.552 330.436 321.264 330.436 323.374Z" fill="#202324"/>
<path d="M330.436 345.947C330.436 345.947 345.416 347.874 353.122 344.176C353.122 344.176 348.767 354.377 340.582 353.462C332.4 352.547 330.436 345.947 330.436 345.947Z" fill="#202324"/>
<path d="M366.219 330.964C366.219 330.964 365.688 312.487 358.494 298.285C358.494 298.285 345.813 304.144 343.023 302.76C340.231 301.378 345.683 298.285 345.683 298.285C345.683 298.285 324.758 305.182 323.501 303.8C322.242 302.416 330.436 298.285 330.436 298.285L317.401 302.76C317.401 302.76 313.383 319.386 315.045 330.964C315.045 330.964 309.443 321.299 308.752 314.626C308.059 307.95 310.992 288.923 330.627 287.542C350.262 286.158 361.288 290.612 366.153 299.626C371.017 308.641 370.414 319.733 366.219 330.964" fill="#872B39"/>
<path d="M342.719 340.608C341.068 340.608 339.389 340.182 338.882 340.04L339.366 338.302C341.148 338.793 343.943 339.087 344.553 338.368C344.763 338.118 344.681 337.538 344.32 336.777C341.865 331.554 341.354 318.332 341.332 317.773L343.139 317.708C343.143 317.842 343.655 331.12 345.954 336.008C346.657 337.498 346.65 338.684 345.933 339.531C345.237 340.356 343.985 340.608 342.719 340.608" fill="#DC4B44"/>
<path d="M361.517 366.023C361.517 366.023 392.265 461.475 395.194 539.14C395.194 539.14 406.291 542.196 418.788 525.179C431.283 508.161 423.851 373.373 399.91 350.929C399.91 350.929 389.049 348.454 361.517 366.023Z" fill="#2A5A9F"/>
<path d="M366.528 382.718C366.528 382.718 372.031 369.928 369.586 361.161C367.141 352.391 358.494 361.161 358.494 361.161C358.494 361.161 361.988 375.519 366.528 382.718Z" fill="#1F436B"/>
<path d="M304.809 359.107C282.123 349.338 208.818 323.372 208.818 323.372C208.818 323.372 159.417 259.835 149.368 250.672C149.368 250.672 136.932 257.708 136.087 272.271C136.087 272.271 167.123 335.961 184.37 355.412C201.619 374.863 288.978 416.932 288.978 416.932L304.809 359.107Z" fill="#1F436B"/>
<path d="M322.655 366.023C322.655 366.023 291.906 461.475 288.978 539.14C288.978 539.14 277.879 542.196 265.384 525.179C252.889 508.161 260.321 373.373 284.259 350.929C284.259 350.929 295.12 348.454 322.655 366.023Z" fill="#2A5A9F"/>
<path d="M317.642 382.718C317.642 382.718 312.138 369.928 314.583 361.161C317.029 352.391 325.675 361.161 325.675 361.161C325.675 361.161 322.183 375.519 317.642 382.718Z" fill="#1F436B"/>
<path d="M478.106 964.564H417.055C412.789 940.295 419.594 916.001 419.594 916.001L447.504 911.209C450.041 926.55 453.106 932.598 457.346 935.713C457.372 935.713 457.372 935.713 457.372 935.713C460.461 937.965 464.154 938.699 468.761 940.295C474.022 942.127 476.797 945.452 478.186 949.065C480.935 956.237 478.106 964.564 478.106 964.564" fill="#61242F"/>
<path d="M478.186 949.065C463.132 950.951 430.066 954.17 432.082 945.452C433.759 938.175 447.711 936.211 457.346 935.713C457.372 935.713 457.372 935.713 457.372 935.713C460.461 937.965 464.153 938.699 468.761 940.295C474.022 942.127 476.797 945.452 478.186 949.065Z" fill="#872B39"/>
<path d="M273.641 964.564H212.59C212.59 964.564 210.654 958.857 211.543 952.809C212.277 947.888 214.894 942.728 221.937 940.295C227.226 938.463 231.284 937.781 234.609 934.666C238.222 931.262 240.917 924.98 243.195 911.209L271.104 916.001C271.104 916.001 277.883 940.295 273.641 964.564" fill="#61242F"/>
<path d="M211.543 952.809C212.277 947.888 214.894 942.729 221.938 940.295C227.226 938.463 231.285 937.781 234.609 934.667C242.332 937.048 253.143 941.42 256.494 948.043C261.156 957.129 225.472 955.688 211.543 952.809Z" fill="#872B39"/>
<path d="M711.946 960.192C711.946 962.758 711.682 964.564 711.682 964.564H637.516C637.516 963.097 637.542 961.63 637.62 960.192C638.459 940.793 644.585 923.959 644.585 923.959L663.119 916.001C664.716 925.555 668.828 931.655 673.985 935.636C675.346 936.709 676.76 937.597 678.225 938.357C678.906 938.725 679.588 939.064 680.293 939.378C681.839 940.085 683.436 940.661 685.032 941.132C691.578 943.122 698.202 943.542 702.835 944.247C710.741 945.478 711.946 954.615 711.946 960.192" fill="#203E50"/>
<path d="M711.946 960.191C711.946 962.758 711.682 964.564 711.682 964.564H637.516C637.516 963.097 637.542 961.63 637.62 960.191H711.946Z" fill="#2A5465"/>
<path d="M678.225 938.357L667.937 941.656L665.765 937.885L673.985 935.636C675.345 936.708 676.76 937.597 678.225 938.357Z" fill="#2A5465"/>
<path d="M685.032 941.132L678.095 945.74L673.827 944.065L680.293 939.378C681.839 940.085 683.436 940.661 685.032 941.132Z" fill="#2A5465"/>
<path d="M428.574 960.192C428.392 962.705 427.737 964.564 427.737 964.564H378.336C377.707 963.122 377.261 961.685 376.947 960.192C372.078 936.55 404.909 907.622 404.909 907.622L415.329 921.523C415.329 921.523 414.124 943.778 422.945 948.412C428.234 951.187 428.916 956.421 428.574 960.192Z" fill="#203E50"/>
<path d="M376.948 960.191H428.574C428.392 962.705 427.737 964.564 427.737 964.564H378.336C377.707 963.122 377.261 961.685 376.948 960.191Z" fill="#2A5465"/>
<path d="M420.689 946.638C420.689 946.638 399.875 941.894 390.386 948.037V944.601C390.386 944.601 407.892 936.093 420.689 946.638Z" fill="#2A5465"/>
<path d="M416.564 941.358C416.564 941.358 403.275 935.282 390.386 941.358L391.857 937.892C391.857 937.892 407.253 932.07 416.564 941.358Z" fill="#2A5465"/>
<path d="M689.562 750.019C689.588 769.889 671.943 931.891 671.943 931.891C654.298 933.645 640.159 930.111 640.159 930.111C635.316 848.01 634.844 777.404 634.844 777.404L550.284 714.021L550.074 713.866C550.074 713.866 549.761 715.304 549.185 717.872C544.995 736.458 527.272 814.316 519.89 832.145C511.486 852.462 419.601 937.892 419.601 937.892C402.532 935.537 388.049 923.174 388.049 923.174C421.035 868.456 466.012 813.583 466.012 813.583C469.52 793.87 472.034 750.019 473.527 717.242C473.553 716.745 473.578 716.221 473.604 715.724C474.599 693.523 475.097 676.77 475.097 676.77L459.598 644.986L558.061 608.805L580.129 637.054C580.129 637.054 585.183 641.739 593.141 649.228C593.509 649.568 593.874 649.907 594.24 650.249C623.797 678.13 689.562 741.119 689.562 750.019" fill="#91C1DF"/>
<path d="M473.527 717.242C473.553 716.745 473.579 716.221 473.604 715.724C494.338 704.467 490.856 686.508 490.804 686.324L492.086 686.063C492.138 686.246 495.857 705.54 473.527 717.242" fill="#6196B4"/>
<path d="M548.766 701.326C549.473 705.252 549.996 709.494 550.284 714.021L550.074 713.866C550.074 713.866 549.761 715.304 549.185 717.872C548.268 687.084 535.573 668.889 535.415 668.679L536.487 667.92C536.619 668.076 544.63 679.649 548.504 699.833C563.479 686.534 548.817 659.28 548.662 659.019L549.812 658.391C549.97 658.679 565.495 687.529 548.766 701.326" fill="#6196B4"/>
<path d="M594.239 650.249C594.214 650.275 594.162 650.275 594.136 650.301C593.534 650.537 592.827 650.641 592.094 650.641C584.843 650.641 572.669 640.482 572.093 639.985L572.956 638.992C576.911 642.343 587.932 650.379 593.141 649.228C593.509 649.568 593.874 649.907 594.239 650.249" fill="#6196B4"/>
<path d="M466.493 475.521C466.493 475.521 496.442 470.702 511.45 480.268C526.457 489.835 546.16 514.803 546.16 514.803C546.16 514.803 522.766 517.892 520.118 533.783C520.118 533.783 503.127 493.313 466.493 475.521" fill="#ACBFC3"/>
<path d="M421.436 491.143C408.767 497.991 387.587 523.705 386.632 539.52C385.698 554.944 397.123 569.129 404.826 581.188C428.861 618.822 454.167 652.07 464.92 696.207C464.988 696.487 519.897 718.277 584.338 640.815C584.338 640.815 547.926 591.823 535.346 550.112C530.225 533.134 525.016 515.098 515.181 500.134C504.346 483.652 485.793 473.956 466.493 475.521C450.161 476.844 433.917 484.394 421.436 491.143Z" fill="#D2DADC"/>
<path d="M416.119 475.356C416.119 475.356 424.223 489.203 420.479 496.817C420.479 496.817 448.284 506.416 448.284 490.858C448.284 490.858 443.045 479.198 445.018 471.659L416.119 475.356Z" fill="#EF5640"/>
<path d="M477.908 570.169C477.908 570.169 462.442 574.564 458.537 580.04C454.634 585.515 451.161 597.798 451.161 597.798H477.908L482.937 588.543L488.825 576.21L477.908 570.169" fill="#EF5640"/>
<path d="M452.338 459.919C452.338 459.919 463.198 455.363 456.172 422.7C451.517 401.058 444.813 397.832 440.479 397.641C440.479 397.641 435.178 389.657 416.793 393.48C404.199 396.097 394.154 403.746 389.73 417.897C385.113 432.667 394.347 464.328 406.507 467.478L452.338 459.919" fill="#203E50"/>
<path d="M454.906 437.845C454.906 437.845 461.751 428.319 464.335 437.709C467.33 448.586 458.009 454.705 455.464 451.508C452.918 448.31 454.906 437.845 454.906 437.845Z" fill="#F57559"/>
<path d="M397.644 447.883C397.644 447.883 388.103 441.062 388.672 450.784C389.33 462.048 400.122 464.849 401.506 461.003C402.89 457.157 397.644 447.883 397.644 447.883" fill="#F57559"/>
<path d="M433.707 482.534C451.88 479.535 460.18 465.971 454.307 430.366C451.277 411.999 440.074 402.275 419.717 405.633C399.358 408.993 392.643 421.672 395.673 440.038C401.985 478.297 414.93 485.63 433.707 482.534" fill="#F57559"/>
<path d="M403.786 451.743C403.77 453.625 405.661 455.165 408.012 455.188C410.363 455.207 412.282 453.703 412.299 451.824C412.315 449.944 410.424 448.402 408.073 448.381C405.725 448.36 403.805 449.866 403.786 451.743" fill="#DC4B44"/>
<path d="M441.335 446.572C441.759 448.402 443.962 449.454 446.251 448.923C448.539 448.39 450.05 446.473 449.623 444.643C449.199 442.814 446.997 441.76 444.707 442.293C442.42 442.825 440.908 444.743 441.335 446.572Z" fill="#DC4B44"/>
<path d="M408.903 431.913C408.724 431.913 408.542 431.861 408.384 431.752C407.965 431.465 407.854 430.892 408.141 430.474C410.681 426.744 415.781 426.03 416.001 426.001C416.534 425.94 416.963 426.289 417.034 426.791C417.1 427.293 416.746 427.758 416.244 427.826C416.196 427.831 411.733 428.47 409.665 431.509C409.486 431.771 409.195 431.913 408.903 431.913Z" fill="#202324"/>
<path d="M443.122 426.265C442.929 426.265 442.733 426.206 442.568 426.079C439.626 423.858 435.204 424.697 435.162 424.704C434.655 424.815 434.179 424.48 434.08 423.98C433.98 423.483 434.306 422.997 434.803 422.9C435.016 422.858 440.076 421.894 443.677 424.61C444.085 424.914 444.162 425.494 443.858 425.897C443.677 426.138 443.401 426.265 443.122 426.265" fill="#202324"/>
<path d="M412.214 441.281C412.586 443.54 413.904 445.202 415.157 444.995C416.411 444.787 417.125 442.79 416.753 440.534C416.383 438.277 415.062 436.614 413.81 436.822C412.556 437.027 411.841 439.024 412.214 441.281Z" fill="#202324"/>
<path d="M436.485 437.279C436.857 439.536 438.175 441.198 439.43 440.991C440.684 440.783 441.399 438.786 441.026 436.53C440.654 434.271 439.335 432.611 438.081 432.818C436.827 433.023 436.112 435.02 436.485 437.279Z" fill="#202324"/>
<path d="M443.299 457.77C443.299 457.77 427.531 462.001 418.788 460.322C418.788 460.322 424.831 467.933 433.459 465.738C442.09 463.543 443.299 457.77 443.299 457.77Z" fill="#202324"/>
<path d="M444.045 413.841C444.045 413.841 423.53 428.696 397.778 429.826L398.509 452.748C398.509 452.748 374.51 408.526 421.976 400.695C469.443 392.864 455.627 442.257 455.627 442.257C455.627 442.257 454.156 420.953 444.045 413.841Z" fill="#1B3540"/>
<path d="M427.265 451.614L427.133 449.631C427.161 449.628 429.899 449.416 430.611 447.721C430.906 447.023 429.738 444.799 428.708 442.835C427.279 440.109 425.504 436.713 424.747 432.943L426.694 432.554C427.392 436.044 429.097 439.298 430.467 441.915C431.993 444.825 433.096 446.928 432.441 448.492C431.252 451.321 427.428 451.602 427.265 451.614Z" fill="#DC4B44"/>
<path d="M455.174 413.897C420.667 398.922 388.101 429.972 388.101 429.972C388.101 429.972 384.305 404.812 390.954 398.922C392.683 397.377 394.541 396.017 396.479 394.812C411.714 385.203 431.979 385.387 441.271 388.686C443.184 389.367 444.648 390.178 445.488 391.041C450.984 396.75 455.174 413.897 455.174 413.897Z" fill="#CF2548"/>
<path d="M450.984 408.295C450.984 408.295 422.004 402.56 394.986 420.441C394.986 420.441 393.258 404.211 396.479 394.812C411.714 385.203 431.979 385.387 441.272 388.686C446.69 394.864 450.984 408.295 450.984 408.295Z" fill="#D2DADC"/>
<path d="M390.954 427.013C390.954 427.013 395.547 407.5 401.737 402.004C412.035 392.862 440.965 389.723 456.172 395.22C471.378 400.716 456.172 417.331 456.172 417.331C456.172 417.331 431.936 399.969 390.954 427.013Z" fill="#9F2240"/>
<path d="M435.704 556.672C435.704 556.672 447.548 575.017 467.719 585.81C467.719 585.81 492.952 563.906 525.669 565.877C525.669 565.877 498.552 614.801 475.267 620.22C463.033 623.066 418.788 593.768 418.788 593.768C418.788 593.768 427.621 562.63 435.704 556.672Z" fill="#F57559"/>
<path d="M392.088 523.412C402.926 505.768 427.932 531.852 436.442 550.48C444.95 569.11 451.161 573.06 451.161 573.06C451.161 573.06 426.178 583.499 426.355 602.224C426.355 602.224 368.435 561.916 392.088 523.412Z" fill="#ACBFC3"/>
<path d="M467.719 577.75C467.719 577.75 482.938 562.819 532.979 543.333L526.516 523.007C532.257 515.454 542.812 515.454 542.812 515.454C542.812 515.454 568.45 551.657 564.036 562.47C561.28 569.226 507.803 576.314 467.719 577.75" fill="#EF5640"/>
<path d="M522.521 548.212C522.521 548.212 522.917 546.071 524.766 543.46C526.615 540.85 526.115 536.099 526.777 534.627C527.442 533.153 531.378 527.136 533.991 525.964C536.603 524.792 540.032 522.877 540.76 526.195C541.489 529.51 536.08 528.569 533.651 533.34C533.651 533.34 538.966 531.621 543.18 532.618C547.396 533.618 548.591 537.471 543.382 537.344C539.228 537.24 533.877 540.204 533.877 540.204C533.877 540.204 539.291 541.017 538.416 543.512C537.209 546.964 530.607 544.84 522.521 548.212" fill="#F57559"/>
<path d="M152.421 616.372C156.894 627.824 175.218 647.46 175.218 647.46C175.218 647.46 219.983 620.625 240.634 631.916C261.285 643.206 277.697 650.093 291.09 645.177C304.481 640.261 247.052 535.813 247.052 535.813L172.589 507.399C172.589 507.399 170.964 526.232 162.457 529.578C153.949 532.924 144.878 564.012 145.486 569.903C146.095 575.793 152.421 616.372 152.421 616.372" fill="#3D6174"/>
<path d="M236.201 648.143C236.201 648.143 217.002 685.779 177.359 733.982C177.359 733.982 173.296 791.302 68.4693 881.489L57.4951 872.856C57.4951 872.856 119.923 775.067 132.409 745.085C144.897 715.103 125.507 687.633 182.953 611.797L236.201 648.143" fill="#EF5640"/>
<path d="M175.089 581.539C158.559 613.203 153.013 653.678 153.013 653.678L145.486 672.667C145.486 672.667 172.184 687.065 203.012 692.302L215.377 659.577L175.089 581.539" fill="#61242F"/>
<path d="M261.295 645.177C261.295 645.177 269.479 686.629 268.131 749.024C268.131 749.024 300.383 796.584 273.766 932.283H259.804C259.804 932.283 248.399 816.83 239.672 785.544C230.945 754.261 198.721 744.661 196.976 649.542L261.295 645.177Z" fill="#F57559"/>
<path d="M269.479 689.675C269.479 689.675 243.221 694.389 196.962 692.215L196.228 687.006L196.047 685.669L191.255 651.949C191.255 651.949 186.803 646.453 182.222 637.499C181.672 636.453 181.149 635.377 180.625 634.253C174.395 620.979 168.871 601.684 175.075 581.554L184.841 581.997L186.202 582.077L218.874 583.567L220.261 583.647L230.995 584.145L232.671 584.223L239.634 584.536C239.634 584.536 275.03 616.398 268.72 675.303L269.166 683.497L269.218 684.832L269.479 689.675" fill="#872B39"/>
<path d="M186.202 582.077C185.285 584.772 179.107 604.775 182.222 637.5C181.672 636.453 181.149 635.377 180.625 634.253C178.296 604.33 183.662 585.664 184.841 581.997C184.997 581.554 185.077 581.344 185.077 581.318L186.306 581.761C186.306 581.787 186.254 581.893 186.202 582.077Z" fill="#61242F"/>
<path d="M269.218 684.832C259.925 687.213 244.164 687.869 229.188 687.869C215.76 687.869 203.01 687.319 196.228 687.006L196.047 685.669C207.801 686.246 238.745 687.449 258.694 685.277L257.411 664.201C257.725 639.619 250.29 618.624 243.117 604.12C224.949 600.821 219.947 587.364 218.874 583.567C218.716 582.966 218.639 582.601 218.639 582.575L219.921 582.365C219.921 582.391 220.025 582.862 220.261 583.648C221.44 587.574 226.309 599.276 242.358 602.627C237.514 593.176 232.933 586.711 230.995 584.145C230.419 583.36 230.054 582.914 230.028 582.888L231.023 582.051C231.075 582.103 231.676 582.836 232.671 584.223C238.745 592.469 259.243 623.493 258.72 664.15L260.003 685.119C263.486 684.702 266.6 684.178 269.166 683.497L269.218 684.832" fill="#61242F"/>
<path d="M202.328 439.505C191.908 433.768 116.822 463.213 116.822 463.213C116.822 463.213 105.714 483.029 112.637 490.796C119.562 498.566 144.13 495.14 151.657 490.796C159.184 486.453 179.121 483.168 179.121 483.168L202.328 439.505Z" fill="#91C1DF"/>
<path d="M268.727 376.997C268.727 376.997 284.238 382.984 289.911 400.853C295.585 418.722 278.624 463.963 284.486 484.758C290.348 505.553 289.437 544.821 271.13 553.112C252.822 561.402 215.278 546.568 207.216 523.877C199.154 501.188 202.635 415.232 218.129 385.998C233.624 356.763 264.997 371.489 268.727 376.997Z" fill="#EF294D"/>
<path d="M250.903 454.094C254.994 458.504 265.511 450.644 265.511 450.644C265.511 450.644 265.296 489.639 253.964 492.626C242.634 495.616 213.748 461.911 214.936 452.748C216.125 443.585 241.832 444.313 250.903 454.094Z" fill="#91C1DF"/>
<path d="M207.216 444.342C207.216 444.342 218.681 454.075 238.651 458.707C258.623 463.335 269.446 453.946 279.661 466.823C294.991 486.151 270.05 521.783 256.925 540.249C252.035 547.132 241.709 566.224 239.625 584.541C239.625 584.541 204.972 594.61 175.089 581.539L172.858 539.027C172.858 539.027 154.02 481.735 207.216 444.342" fill="#1B3540"/>
<path d="M243.044 485.703C243.044 485.703 258.878 447.968 263.462 445.558C268.048 443.149 279.675 448.933 282.012 454.094C284.347 459.256 282.012 470.515 282.012 470.515C282.012 470.515 269.524 456.261 243.044 485.703" fill="#91C1DF"/>
<path d="M318.882 645.17C311.683 659.907 294.01 664.149 294.01 664.149C294.01 664.149 292.675 662.107 290.423 658.443C290.187 658.075 289.926 657.658 289.69 657.238C275.79 634.698 233.298 562.572 234.138 525.056C235.107 480.237 264.348 455.627 264.348 455.627C279.192 459.162 283.88 463.22 283.88 463.22C283.88 463.22 288.879 488.719 284.297 519.401C279.716 550.058 271.392 558.174 275.58 560.478C279.741 562.755 275.58 567.337 275.58 567.337C275.58 567.337 300.216 601.658 304.824 612.34C307.806 619.303 312.886 631.137 316.055 638.52C316.262 639.044 316.472 639.567 316.682 640.039C318.017 643.154 318.882 645.17 318.882 645.17" fill="#6196B4"/>
<path d="M276.091 463.213C276.091 463.213 258.451 476.288 268.727 496.265L317.618 546.879C290.784 575.475 288.124 587.213 268.727 600.396L276.091 611.797C276.091 611.797 344.025 559.589 344.126 546.879C344.169 541.439 302.63 475.635 276.091 463.213Z" fill="#F57559"/>
<path d="M267.657 600.399C267.657 600.399 258.338 601.434 252.469 602.9C246.6 604.367 238.776 605.834 238.531 607.058C238.288 608.279 251.49 607.058 251.49 607.058C251.49 607.058 240.733 611.476 240.488 613.179C240.243 614.881 254.181 611.948 254.181 611.948C254.181 611.948 245.378 617.327 245.866 618.793C246.357 620.26 257.199 616.593 257.199 616.593C257.199 616.593 255.183 621.727 253.091 624.172C253.091 624.172 255.192 625.327 259.453 620.593C263.716 615.86 270.522 617.379 275.907 613.179C281.293 608.977 272.561 599.767 267.657 600.399" fill="#F57559"/>
<path d="M217.698 450.621C217.698 450.621 204.278 459.294 195.804 480.237C187.327 501.181 160.587 540.593 154.322 550.775C148.059 560.959 152.421 616.372 152.421 616.372C152.421 616.372 144.567 582.775 141.077 569.683C137.585 556.594 152.348 524.249 154.567 522.533C156.783 520.816 168.128 523.957 165.947 510.823C163.766 497.689 194.205 441.099 202.328 439.505C202.328 439.505 215.344 441.951 217.698 450.621" fill="#6196B4"/>
<path d="M176.202 453.455C175.966 453.899 175.704 454.344 175.39 454.764C172.353 459.136 166.699 462.618 166.699 462.618C166.699 462.618 156.46 476.965 156.357 478.613C156.253 480.028 138.58 492.855 130.728 492.593H130.702C129.626 492.567 128.737 492.28 128.108 491.704C123.448 487.304 143.975 450.392 148.502 442.434C148.79 441.908 149.026 441.517 149.184 441.255C149.287 441.045 149.368 440.915 149.368 440.915C149.368 440.915 145.753 427.458 160.834 429.972C173.374 432.04 175.86 442.014 177.171 448.69C177.484 450.286 177.039 451.911 176.202 453.455" fill="#6196B4"/>
<path d="M123.547 467.405C133.906 453.788 170.356 427.378 189.555 419.559L194.356 428.482C194.356 428.482 157.255 461.098 148.54 475.052C139.825 489.005 129.027 494.775 118.714 490.127C108.397 485.482 121.369 470.27 123.547 467.405Z" fill="#F57559"/>
<path d="M172.589 450.654L170.625 452.906L169.63 454.057L166.383 457.775C166.383 457.775 158.215 467.669 158.531 471.65C158.764 474.503 143.032 487.279 130.728 492.593C125.726 494.768 121.277 495.708 118.683 494.216C109.784 489.085 111.772 473.666 116.825 463.22C121.223 454.109 140.676 442.354 145.675 439.475C146.305 439.081 146.696 438.848 146.828 438.793C146.854 438.767 146.854 438.767 146.854 438.767L148.712 431.543C148.712 431.543 155.494 427.458 160.835 429.972C160.835 429.972 149.052 430.47 150.99 435.051C152.98 439.659 169.316 450.496 172.589 450.654" fill="#91C1DF"/>
<path d="M215.366 412.877C203.507 417.746 205.207 428.479 194.344 428.479C187.614 428.479 186.725 420.783 186.725 420.783C189.762 414.211 191.698 403.006 192.118 397.665C192.564 392.324 194.344 394.392 194.344 394.392C194.344 393.895 194.318 393.425 194.292 392.954C194.134 389.367 193.479 386.748 195.837 388.294C198.506 390.02 199.423 400.179 199.423 400.179C201.621 385.361 198.35 383.161 200.916 384.47C204.422 386.252 204.448 399.342 204.448 399.733C207.275 391.119 206.518 386.198 208.48 388.162C210.47 390.152 207.485 405.965 206.308 411.778C206.047 413.086 205.863 413.898 205.863 413.898C215.262 409.29 215.366 412.877 215.366 412.877" fill="#F57559"/>
<path d="M206.309 411.778C206.047 413.086 205.863 413.898 205.863 413.898C205.863 413.898 201.517 413.478 198.35 418.165C198.35 418.165 199.239 411.881 206.309 411.778" fill="#EF5640"/>
<path d="M194.997 405.022C195.077 403.765 195.601 396.566 194.344 394.392C194.344 393.895 194.318 393.425 194.292 392.954C197.013 393.529 195.287 403.503 194.997 405.022Z" fill="#EF5640"/>
<path d="M202.356 467.478C202.356 467.478 210.371 445.756 212.92 440.908C215.472 436.058 228.75 436.89 238.799 438.765C248.849 440.639 250.903 454.094 250.903 454.094C250.903 454.094 220.329 439.668 202.356 467.478" fill="#91C1DF"/>
<path d="M253.964 424.728C253.964 424.728 244.362 442.458 244.515 462.119C244.515 462.119 228.92 472.718 223.338 459.442C223.338 459.442 229.261 442.05 226.399 418.571C224.482 402.848 253.964 424.728 253.964 424.728" fill="#EF5640"/>
<path d="M223.338 400.127C223.338 400.127 220.485 389.964 215.406 397.109C209.522 405.385 215.519 413.431 218.657 411.511C221.796 409.592 223.338 400.127 223.338 400.127" fill="#F57559"/>
<path d="M268.673 426.261C268.673 426.261 278.841 423.429 275.367 431.477C271.34 440.8 261.351 439.843 261.365 436.164C261.38 432.486 268.673 426.261 268.673 426.261" fill="#F57559"/>
<path d="M227.5 444.453C213.052 436.317 210.213 422.29 226.151 393.987C234.371 379.388 246.843 374.618 263.023 383.729C279.204 392.841 280.977 405.633 272.755 420.231C255.631 450.642 242.424 452.856 227.5 444.453" fill="#F57559"/>
<path d="M262.287 427.633C261.722 429.227 259.649 429.948 257.654 429.241C255.659 428.536 254.501 426.671 255.065 425.077C255.628 423.48 257.704 422.761 259.698 423.466C261.693 424.174 262.851 426.036 262.287 427.633" fill="#DC4B44"/>
<path d="M232.126 411.69C231.204 413.107 229.019 413.32 227.245 412.164C225.475 411.007 224.786 408.922 225.71 407.505C226.635 406.088 228.821 405.876 230.591 407.031C232.365 408.186 233.051 410.273 232.126 411.69Z" fill="#DC4B44"/>
<path d="M264.355 409.332C263.983 409.332 263.646 409.083 263.551 408.708C262.733 405.484 259.161 403.586 259.125 403.57C258.72 403.357 258.562 402.855 258.774 402.449C258.984 402.046 259.481 401.886 259.892 402.098C260.066 402.19 264.16 404.367 265.157 408.302C265.27 408.743 265.002 409.196 264.558 409.307C264.49 409.325 264.421 409.332 264.355 409.332" fill="#202324"/>
<path d="M244.515 395.22C244.369 395.22 244.221 395.18 244.086 395.1C244.053 395.078 240.57 393.01 237.394 393.98C236.956 394.116 236.493 393.869 236.361 393.43C236.229 392.992 236.475 392.529 236.913 392.395C240.797 391.204 244.777 393.581 244.944 393.682C245.336 393.918 245.461 394.425 245.223 394.819C245.069 395.076 244.796 395.22 244.515 395.22" fill="#202324"/>
<path d="M258.385 416.19C257.373 417.984 255.746 418.981 254.751 418.42C253.754 417.859 253.766 415.949 254.775 414.157C255.786 412.362 257.413 411.363 258.408 411.924C259.406 412.485 259.396 414.395 258.385 416.19" fill="#202324"/>
<path d="M238.13 405.324C237.118 407.118 235.491 408.118 234.496 407.557C233.499 406.995 233.51 405.085 234.52 403.291C235.531 401.499 237.158 400.499 238.156 401.06C239.151 401.622 239.139 403.532 238.13 405.324" fill="#202324"/>
<path d="M231.113 423.744C231.113 423.744 239.401 430.071 245.39 430.262C245.39 430.262 239.021 435.449 234.442 432.085C229.865 428.72 231.113 423.744 231.113 423.744Z" fill="#202324"/>
<path d="M254.03 412.563C254.03 412.563 257.836 408.884 259.392 410.179C260.948 411.473 260.135 416.001 260.135 416.001L263.462 416.086L260.71 414.977C260.71 414.977 261.597 410.275 259.885 409.304C257.449 407.915 254.03 412.563 254.03 412.563" fill="#202324"/>
<path d="M239.698 405.206C239.698 405.206 240.87 400.044 238.955 399.384C237.043 398.724 233.595 401.768 233.595 401.768L231.796 398.964L234.171 400.745C234.171 400.745 237.731 397.549 239.45 398.507C241.9 399.872 239.698 405.206 239.698 405.206" fill="#202324"/>
<path d="M266.86 389.78C266.86 389.78 261.684 382.588 254.537 388.299C247.39 394.008 231.268 403.147 223.338 400.127C215.406 397.109 240.688 363.318 262.639 373.213C284.589 383.109 282.613 415.319 273.483 425.56C264.353 435.801 268.673 426.261 268.673 426.261C268.673 426.261 269.281 411.731 272.332 402.103C275.384 392.473 266.86 389.78 266.86 389.78" fill="#EF294D"/>
<path d="M242.53 420.45C242.129 420.45 241.709 420.396 241.278 420.288L241.716 418.555C243.193 418.93 243.919 418.295 244.268 417.699C244.761 416.854 244.69 415.767 244.301 415.36C244.072 415.121 243.683 415.145 243.136 415.433L242.306 413.846C244.126 412.893 245.211 413.723 245.595 414.126C246.579 415.157 246.673 417.121 245.812 418.599C245.11 419.802 243.931 420.45 242.53 420.45" fill="#DC4B44"/>
<path d="M348.333 544.875C347.47 557.573 316.055 598.908 310.818 600.375C309.457 600.743 308.068 601.502 306.759 602.391C306.21 602.785 305.661 603.202 305.137 603.622C302.152 606.03 299.9 608.805 299.9 608.805C290.737 608.204 265.004 596.291 273.276 593.674C273.773 593.516 274.323 593.228 274.926 592.811C275.266 592.575 275.632 592.313 275.999 591.971C285.738 583.803 304.692 550.659 304.824 548.148C304.927 545.398 308.2 544.875 308.2 544.875C308.2 544.875 290.32 518.616 279.951 515.449C269.586 512.28 264.348 499.74 264.348 499.74C254.112 456.412 283.88 463.22 283.88 463.22C305.819 476.283 349.196 532.151 348.333 544.875Z" fill="#91C1DF"/>
<path d="M306.759 602.391C306.21 602.785 305.661 603.203 305.137 603.622C291.079 602.653 279.298 595.742 274.927 592.811C275.266 592.575 275.632 592.313 275.999 591.971C280.685 595.034 292.675 601.868 306.759 602.391Z" fill="#3D6174"/>
<path d="M176.202 453.455C175.966 453.898 175.704 454.344 175.391 454.764C173.374 454.686 171.462 454.45 169.63 454.056C160.337 452.172 153.19 446.961 148.502 442.434C147.429 441.385 146.486 440.392 145.675 439.475C146.305 439.081 146.696 438.847 146.828 438.793C147.507 439.552 148.292 440.392 149.184 441.255C153.843 445.836 161.096 451.177 170.625 452.906C172.405 453.245 174.263 453.429 176.202 453.455" fill="#3D6174"/>
<path d="M316.682 640.039C312.362 647.342 304.378 656.165 290.423 658.443C290.187 658.075 289.925 657.658 289.69 657.238C304.01 655.093 311.944 645.797 316.054 638.521C316.262 639.044 316.472 639.568 316.682 640.039" fill="#3D6174"/>
<path d="M78.4201 878.249C78.4201 878.249 75.1472 881.468 71.7446 887.386C68.3396 893.302 72.0841 898.747 55.6159 912.466C55.6159 912.466 22.394 893.015 7.39355 868.013C7.39355 868.013 7.656 860.866 14.9078 859.189C18.8086 858.3 29.5411 863.325 39.8573 865.263C41.3216 865.525 42.7883 865.761 44.2291 865.865C46.0353 866.023 47.8156 866.049 49.5157 865.839C51.0885 865.683 52.5811 865.341 53.9676 864.766H53.9935C57.5023 863.325 60.2776 860.472 61.716 855.473C61.716 855.473 70.5396 860.498 64.6493 869.008C64.6493 869.008 75.1212 864.426 78.4201 878.249" fill="#D2DADC"/>
<path d="M55.6158 912.466C55.6158 912.466 22.394 893.015 7.39355 868.013C7.39355 868.013 12.9697 866.834 17.578 875.106C22.1841 883.406 58.3134 902.23 55.6158 912.466Z" fill="#ACBFC3"/>
<path d="M55.748 873.144C53.0505 877.41 53.1047 869.532 49.5159 865.839C51.0887 865.683 52.5813 865.341 53.9678 864.766H53.9937C55.5901 866.495 57.8679 869.819 55.748 873.144Z" fill="#ACBFC3"/>
<path d="M45.3021 873.38C42.4489 876.075 41.5316 869.034 39.8574 865.263C41.3217 865.525 42.7884 865.761 44.2292 865.865C45.9033 868.142 47.4761 871.312 45.3021 873.38" fill="#ACBFC3"/>
<path d="M282.804 964.564H235.812C235.812 964.564 233.85 958.018 235.812 950.819C236.651 947.704 241.521 944.799 246.048 940.741C247.305 939.614 248.51 938.437 249.634 937.1C250.526 936.053 251.337 934.902 252.018 933.671C252.881 932.179 253.563 930.556 253.954 928.776C254.714 925.216 254.426 921.025 252.384 916C252.384 916 268.381 912.65 274.087 921.367C274.087 921.367 274.636 917.335 279.716 920.03C279.716 920.03 278.982 928.121 279.977 934.902C280.972 941.656 287.282 943.62 282.804 964.564" fill="#D2DADC"/>
<path d="M270.578 936.263C270.161 936.734 269.585 936.97 269.008 936.97C268.51 936.97 268.041 936.812 267.621 936.499C265.185 934.56 259.819 931.551 252.018 933.671C252.881 932.179 253.563 930.556 253.954 928.776C257.097 927.623 263.014 926.944 270.316 933.174C271.26 933.959 271.392 935.345 270.578 936.263Z" fill="#ACBFC3"/>
<path d="M266.626 944.065L266.364 944.456C265.737 945.426 264.48 945.739 263.485 945.164C260.29 943.28 253.117 939.72 246.048 940.741C247.305 939.613 248.51 938.437 249.634 937.1C253.117 936.289 259.689 935.843 266.155 941.21C266.992 941.917 267.227 943.148 266.626 944.065" fill="#ACBFC3"/>
</svg>
