<svg width="305" height="182" viewBox="0 0 305 182" fill="none" xmlns="http://www.w3.org/2000/svg">
<path d="M176.657 38.3628L152.5 0.342134L128.343 38.3628L100 15.3203L111.983 62.3271H152.5H193.017L205 15.3203L176.657 38.3628Z" fill="#FBC907"/>
<path d="M193.489 64.1605H110.328V62.3269H193.489V64.1605Z" fill="#FBC907"/>
<path d="M193.489 73.4966H110.328V71.663H193.489V73.4966Z" fill="#FBC907"/>
<path d="M192.478 71.6779H111.383V64.1504H192.478V71.6779Z" fill="#FBC907"/>
<path d="M192.478 65.4373H111.383V64.1505H192.478V65.4373Z" fill="#EFA210"/>
<path d="M192.478 71.6609H111.383V70.3741H192.478V71.6609Z" fill="#EFA210"/>
<path d="M100 15.3203L124.401 62.3271H111.983L100 15.3203Z" fill="#EFA210"/>
<path d="M128.343 38.3625L152.5 55.704V0.341861L128.343 38.3625Z" fill="#EFA210"/>
<path d="M176.657 35.3301V49.0731L205 12.2877L176.657 35.3301Z" fill="#EFA210"/>
<path d="M126.216 38.3515C126.142 38.3515 126.067 38.3272 126.004 38.2757L102.874 19.2411C102.731 19.1239 102.711 18.9126 102.828 18.7701C102.945 18.6265 103.157 18.6073 103.299 18.7236L126.43 37.7582C126.572 37.8764 126.592 38.0867 126.475 38.2302C126.408 38.3101 126.312 38.3515 126.216 38.3515Z" fill="white"/>
<path d="M174.423 37.6519C174.311 37.6519 174.202 37.5953 174.139 37.4932L153.311 4.00201C153.213 3.84533 153.262 3.63813 153.419 3.5411C153.575 3.44507 153.782 3.49155 153.88 3.64822L174.707 37.1394C174.805 37.2971 174.758 37.5033 174.6 37.6014C174.544 37.6347 174.484 37.6519 174.423 37.6519Z" fill="white"/>
<path d="M193.489 56.0386C193.46 56.0386 193.43 56.0346 193.401 56.0265C193.222 55.978 193.117 55.795 193.165 55.6161L203.391 17.8997C203.439 17.7218 203.622 17.6157 203.801 17.6642C203.98 17.7127 204.085 17.8967 204.037 18.0746L193.811 55.791C193.771 55.9406 193.636 56.0386 193.489 56.0386Z" fill="white"/>
<path d="M184.552 61.9347H158.974C158.789 61.9347 158.639 61.7851 158.639 61.6001C158.639 61.4141 158.789 61.2645 158.974 61.2645H184.552C184.737 61.2645 184.887 61.4141 184.887 61.6001C184.887 61.7851 184.737 61.9347 184.552 61.9347Z" fill="white"/>
<path d="M190.828 61.9347H187.761C187.576 61.9347 187.426 61.7851 187.426 61.6001C187.426 61.4141 187.576 61.2645 187.761 61.2645H190.828C191.013 61.2645 191.163 61.4141 191.163 61.6001C191.163 61.7851 191.013 61.9347 190.828 61.9347Z" fill="white"/>
<path d="M53.3846 166.944H24.9686L19.6886 180H0.296625L29.9606 112.8H48.6806L78.4406 180H58.6646L53.3846 166.944ZM47.8166 152.928L39.1766 131.424L30.5366 152.928H47.8166ZM83.5294 112.8H102.537V164.928H134.601V180H83.5294V112.8ZM141.823 112.8H160.831V180H141.823V112.8ZM219.078 166.944H190.662L185.382 180H165.99L195.654 112.8H214.374L244.134 180H224.358L219.078 166.944ZM213.51 152.928L204.87 131.424L196.23 152.928H213.51ZM272.839 181.344C267.399 181.344 262.119 180.672 256.999 179.328C251.879 177.984 247.719 176.192 244.519 173.952L250.759 159.936C253.767 161.92 257.255 163.52 261.223 164.736C265.191 165.952 269.095 166.56 272.935 166.56C280.231 166.56 283.879 164.736 283.879 161.088C283.879 159.168 282.823 157.76 280.711 156.864C278.663 155.904 275.335 154.912 270.727 153.888C265.671 152.8 261.447 151.648 258.055 150.432C254.663 149.152 251.751 147.136 249.319 144.384C246.887 141.632 245.671 137.92 245.671 133.248C245.671 129.152 246.791 125.472 249.031 122.208C251.271 118.88 254.599 116.256 259.015 114.336C263.495 112.416 268.967 111.456 275.431 111.456C279.847 111.456 284.199 111.968 288.487 112.992C292.775 113.952 296.551 115.392 299.815 117.312L293.959 131.424C287.559 127.968 281.351 126.24 275.335 126.24C271.559 126.24 268.807 126.816 267.079 127.968C265.351 129.056 264.487 130.496 264.487 132.288C264.487 134.08 265.511 135.424 267.559 136.32C269.607 137.216 272.903 138.144 277.447 139.104C282.567 140.192 286.791 141.376 290.119 142.656C293.511 143.872 296.423 145.856 298.855 148.608C301.351 151.296 302.599 154.976 302.599 159.648C302.599 163.68 301.479 167.328 299.239 170.592C296.999 173.856 293.639 176.48 289.159 178.464C284.679 180.384 279.239 181.344 272.839 181.344Z" fill="white"/>
</svg>
