<svg width="106" height="21" viewBox="0 0 106 21" fill="none" xmlns="http://www.w3.org/2000/svg">
<path fill-rule="evenodd" clip-rule="evenodd" d="M34.5 16C37.5376 16 40 13.5376 40 10.5C40 7.46243 37.5376 5 34.5 5C31.4624 5 29 7.46243 29 10.5C29 13.5376 31.4624 16 34.5 16Z" fill="white"/>
<path opacity="0.3" d="M44 10.5C44 15.7467 39.7467 20 34.5 20C29.2533 20 25 15.7467 25 10.5C25 5.25329 29.2533 1 34.5 1C39.7467 1 44 5.25329 44 10.5Z" stroke="white" stroke-width="2"/>
<path opacity="0.2" fill-rule="evenodd" clip-rule="evenodd" d="M70.5 15C72.9853 15 75 12.9853 75 10.5C75 8.01472 72.9853 6 70.5 6C68.0147 6 66 8.01472 66 10.5C66 12.9853 68.0147 15 70.5 15Z" fill="white"/>
</svg>
